<svg width="22" height="23" viewBox="0 0 22 23" fill="none" xmlns="http://www.w3.org/2000/svg">
<g clip-path="url(#clip0)">
<path d="M13.5537 10.1987V5.65691C13.5537 5.27176 13.2414 4.95949 12.8562 4.95949H6.75159V2.71089C6.75159 2.09554 6.00891 1.78152 5.56757 2.21127L0.210749 7.42817C-0.0705765 7.70213 -0.0699226 8.1541 0.210749 8.42745L5.56757 13.6444C6.00834 14.0737 6.75159 13.7608 6.75159 13.1448V10.8962H12.8562C13.2414 10.8962 13.5537 10.5839 13.5537 10.1987Z" fill="#757575"/>
<path d="M21.7892 15.3561L16.4324 10.1391C15.9916 9.70992 15.2484 10.0228 15.2484 10.6388V12.8874H9.14372C8.75852 12.8874 8.44629 13.1996 8.44629 13.5848V18.1266C8.44629 18.5118 8.75852 18.824 9.14372 18.824H15.2484V21.0726C15.2484 21.6899 15.9937 21.9995 16.4324 21.5723L21.7892 16.3553C22.0705 16.0814 22.0699 15.6295 21.7892 15.3561Z" fill="#757575"/>
</g>
<defs>
<clipPath id="clip0">
<rect width="22" height="22" fill="white" transform="translate(0 0.891357)"/>
</clipPath>
</defs>
</svg>
