<svg width="22" height="22" viewBox="0 0 22 22" fill="none" xmlns="http://www.w3.org/2000/svg">
<path d="M5.31665 5.5916C4.5833 4.85825 1.46665 4.67495 0.458305 4.58325C0.366652 4.58325 0.274957 4.58325 0.183305 4.6749C0.0916523 4.7666 0 4.94995 0 5.0416V13.2916C0 13.5666 0.183348 13.75 0.458348 13.75H3.20835C3.3917 13.75 3.575 13.6583 3.6667 13.475C3.6667 13.2 5.3167 8.34161 5.50004 5.9583C5.5 5.8666 5.5 5.6833 5.31665 5.5916Z" fill="#CAD1D1"/>
<path d="M15.1252 7.79163C14.2085 7.51662 13.3835 7.14997 12.6502 6.87497C11.0002 6.14162 10.2668 6.50832 8.80018 7.97497C8.15852 8.61663 7.70018 9.53332 7.79183 9.89998C7.79183 9.99163 7.79183 9.99163 7.97518 10.0833C8.43352 10.2667 9.07518 10.3583 9.71683 9.34998C9.80848 9.25832 9.90018 9.16663 10.0835 9.16663C10.3585 9.16663 10.4501 9.07498 10.7251 8.98328C10.9085 8.89163 11.0918 8.79993 11.3668 8.70828C11.4584 8.70828 11.4584 8.70828 11.5501 8.70828C11.6418 8.70828 11.8251 8.79993 11.9168 8.79993C12.3752 9.25832 13.2002 9.89998 14.0252 10.6333C15.3085 11.6417 16.5918 12.7417 17.2335 13.5667H17.3252C16.6835 11.7333 15.5835 8.61663 15.1252 7.79163Z" fill="#CAD1D1"/>
<path d="M21.5416 5.5C17.9666 5.5 15.9499 6.41665 15.8583 6.41665C15.7666 6.5083 15.6749 6.6 15.5833 6.69165C15.5833 6.7833 15.5833 6.96665 15.6749 7.05831C16.2249 7.97496 18.0583 13.0167 18.3333 14.3C18.4249 14.4833 18.6083 14.6666 18.7916 14.6666H21.5416C21.8166 14.6666 22 14.4833 22 14.2083V5.95826C22 5.68335 21.8166 5.5 21.5416 5.5Z" fill="#CAD1D1"/>
<path d="M16.5916 14.4833C16.2249 13.6583 14.6666 12.4666 13.2916 11.3666C12.5583 10.7249 11.8249 10.1749 11.2749 9.71656C11.1833 9.80821 10.9999 9.80821 10.9999 9.89991C10.7249 9.99156 10.6333 10.0833 10.2666 10.0833C9.53325 10.9999 8.61656 11.3666 7.60825 10.9999C7.14991 10.9083 6.87491 10.5416 6.78325 10.1749C6.59991 9.25825 7.42491 7.97491 8.0666 7.33325H6.23325C5.8666 9.1666 5.22491 11.5499 4.7666 12.8333C5.13325 13.1999 5.49995 13.6583 5.77495 13.8416C7.5166 15.3083 9.5333 16.775 9.89995 17.05C10.1749 17.2333 10.7249 17.4166 10.9999 17.4166C11.0916 17.4166 11.1833 17.4166 11.2749 17.4166L9.80825 15.9499C9.62491 15.7666 9.62491 15.4916 9.80825 15.3083C9.9916 15.125 10.2666 15.1249 10.4499 15.3083L12.2833 17.1416C12.4666 17.325 12.6499 17.2333 12.8333 17.2333C13.1083 17.1416 13.1999 16.9583 13.2916 16.6833L11.1833 14.5749C10.9999 14.3916 10.9999 14.1166 11.1833 13.9333C11.3666 13.75 11.6416 13.7499 11.8249 13.9333L14.1166 16.2249C14.2082 16.3166 14.5749 16.3166 14.8499 16.2249C14.9416 16.1333 15.1249 16.0416 15.2166 15.8583L12.6499 13.2916C12.4666 13.1082 12.4666 12.8332 12.6499 12.6499C12.8333 12.4666 13.1083 12.4666 13.2916 12.6499L15.9499 15.3083C16.1333 15.3999 16.3166 15.3083 16.4999 15.2166C16.5916 15.1249 16.7749 14.8499 16.5916 14.4833Z" fill="#CAD1D1"/>
</svg>
