<svg width="22" height="22" viewBox="0 0 22 22" fill="none" xmlns="http://www.w3.org/2000/svg">
<path d="M5.31665 5.59164C4.5833 4.85829 1.46665 4.67499 0.458305 4.58329C0.366652 4.58329 0.274957 4.58329 0.183305 4.67494C0.0916523 4.76664 0 4.94999 0 5.04164V13.2917C0 13.5667 0.183348 13.75 0.458348 13.75H3.20835C3.3917 13.75 3.575 13.6583 3.6667 13.475C3.6667 13.2 5.3167 8.34164 5.50004 5.95834C5.5 5.86664 5.5 5.68333 5.31665 5.59164Z" fill="#009688"/>
<path d="M15.1253 7.79164C14.2086 7.51664 13.3836 7.14999 12.6503 6.87499C11.0003 6.14164 10.267 6.50833 8.8003 7.97499C8.15865 8.61664 7.7003 9.53334 7.79195 9.89999C7.79195 9.99165 7.79195 9.99165 7.9753 10.0833C8.43365 10.2667 9.0753 10.3583 9.71695 9.34999C9.8086 9.25834 9.9003 9.16664 10.0836 9.16664C10.3586 9.16664 10.4503 9.07499 10.7253 8.9833C10.9086 8.89164 11.0919 8.79995 11.3669 8.7083C11.4586 8.7083 11.4586 8.7083 11.5503 8.7083C11.6419 8.7083 11.8253 8.79995 11.9169 8.79995C12.3753 9.25834 13.2003 9.89999 14.0253 10.6333C15.3086 11.6417 16.5919 12.7417 17.2336 13.5667H17.3253C16.6836 11.7333 15.5836 8.61664 15.1253 7.79164Z" fill="#009688"/>
<path d="M21.5419 5.5C17.9669 5.5 15.9502 6.41665 15.8585 6.41665C15.7668 6.5083 15.6751 6.6 15.5835 6.69165C15.5835 6.7833 15.5835 6.96665 15.6751 7.05831C16.2252 7.97496 18.0585 13.0167 18.3335 14.3C18.4252 14.4833 18.6085 14.6666 18.7919 14.6666H21.5419C21.8169 14.6666 22.0002 14.4833 22.0002 14.2083V5.95826C22.0002 5.68335 21.8169 5.5 21.5419 5.5Z" fill="#009688"/>
<path d="M16.5916 14.4834C16.2249 13.6584 14.6666 12.4667 13.2916 11.3667C12.5583 10.725 11.8249 10.175 11.2749 9.71667C11.1833 9.80832 10.9999 9.80832 10.9999 9.90002C10.7249 9.99167 10.6333 10.0834 10.2666 10.0834C9.53325 11 8.61656 11.3667 7.60825 11C7.14991 10.9084 6.87491 10.5417 6.78325 10.175C6.59991 9.25837 7.42491 7.97502 8.0666 7.33336H6.23325C5.8666 9.16671 5.22491 11.55 4.7666 12.8334C5.13325 13.2 5.49995 13.6584 5.77495 13.8417C7.5166 15.3084 9.5333 16.7751 9.89995 17.0501C10.1749 17.2334 10.7249 17.4167 10.9999 17.4167C11.0916 17.4167 11.1833 17.4167 11.2749 17.4167L9.80825 15.95C9.62491 15.7667 9.62491 15.4917 9.80825 15.3084C9.9916 15.1251 10.2666 15.125 10.4499 15.3084L12.2833 17.1417C12.4666 17.3251 12.6499 17.2334 12.8333 17.2334C13.1083 17.1417 13.1999 16.9584 13.2916 16.6834L11.1833 14.575C10.9999 14.3917 10.9999 14.1167 11.1833 13.9334C11.3666 13.7501 11.6416 13.75 11.8249 13.9334L14.1166 16.225C14.2082 16.3167 14.5749 16.3167 14.8499 16.225C14.9416 16.1334 15.1249 16.0417 15.2166 15.8584L12.6499 13.2917C12.4666 13.1083 12.4666 12.8333 12.6499 12.65C12.8333 12.4667 13.1083 12.4667 13.2916 12.65L15.9499 15.3084C16.1333 15.4 16.3166 15.3084 16.4999 15.2167C16.5916 15.125 16.7749 14.85 16.5916 14.4834Z" fill="#009688"/>
</svg>
