<svg width="24" height="24" viewBox="0 0 24 24" fill="none" xmlns="http://www.w3.org/2000/svg">
<path d="M12 0C5.37231 0 0 5.37231 0 12C0 18.6277 5.37231 24 12 24C18.6277 24 24 18.6277 24 12C24 5.37231 18.6277 0 12 0ZM12 22.1538C6.40385 22.1538 1.84615 17.599 1.84615 12C1.8414 10.6344 2.11446 9.28201 2.64874 8.02521C3.18302 6.7684 3.96735 5.63341 4.95404 4.68923L13.3269 10.6731L12.2308 12.4038L5.01923 7.15385C4.26923 8.48077 3.47885 9.80769 3.47885 12C3.47885 16.6985 7.30154 20.5212 12 20.5212C16.6985 20.5212 20.5212 16.6985 20.5212 12C20.5212 7.57673 17.1335 3.93 12.8163 3.51923V6.69231H11.1837V1.83981C11.4283 1.84385 11.6994 1.84615 12 1.84615C17.599 1.84615 22.1538 6.40385 22.1538 12C22.1538 17.5962 17.599 22.1538 12 22.1538Z" fill="#CAD1D1"/>
</svg>
