<svg width="22" height="22" viewBox="0 0 22 22" fill="none" xmlns="http://www.w3.org/2000/svg">
<path d="M21.9996 3.72139C21.9996 2.88677 21.6746 2.10212 21.0845 1.51198L20.4876 0.915148C19.8975 0.325016 19.1128 0 18.2783 0C17.4436 0 16.6589 0.325016 16.0688 0.915148L12.5923 4.39171L17.6079 9.40736L21.0845 5.9308C21.6746 5.34067 21.9996 4.55602 21.9996 3.72139ZM19.5594 3.66313H18.2703V2.37407H19.5594V3.66313Z" fill="#009688"/>
<path d="M7.11621 12.3876L9.29344 13.0222C9.45113 13.0682 9.61205 13.0906 9.77168 13.0906C10.2185 13.0906 10.655 12.9151 10.9801 12.59L14.9739 8.59617L12.9408 6.56306L7.11621 12.3876Z" fill="#009688"/>
<path d="M19.0424 17.5718L13.4655 18.7527C13.2287 19.0755 12.9111 19.3349 12.5432 19.4959C11.9857 19.74 11.3709 19.7473 10.8151 19.5179L6.79491 17.882L7.31354 16.6073L11.1998 18.243C11.6687 18.433 12.2027 18.2045 12.3891 17.7341C12.5728 17.2704 12.3496 16.7451 11.8883 16.5556L6.79667 14.4033C5.84895 14.012 4.80296 14.0497 3.88111 14.499C3.78224 14.5472 0 16.496 0 16.496V21.8859L4.70667 19.3628L11.3581 22L21.9997 19.7484C21.9998 19.7483 21.9999 19.7482 22 19.7481C21.7487 18.366 20.4245 17.3204 19.0424 17.5718Z" fill="#009688"/>
</svg>
