<svg width="22" height="22" viewBox="0 0 22 22" fill="none" xmlns="http://www.w3.org/2000/svg">
<path d="M21.9996 3.72139C21.9996 2.88677 21.6746 2.10212 21.0845 1.51198L20.4876 0.915148C19.8975 0.325016 19.1128 0 18.2783 0C17.4436 0 16.6589 0.325016 16.0688 0.915148L12.5923 4.39171L17.6079 9.40736L21.0845 5.9308C21.6746 5.34067 21.9996 4.55602 21.9996 3.72139ZM19.5594 3.66313H18.2703V2.37407H19.5594V3.66313Z" fill="#CAD1D1"/>
<path d="M7.11621 12.3875L9.29344 13.0222C9.45113 13.0681 9.61205 13.0905 9.77168 13.0905C10.2185 13.0905 10.655 12.915 10.9801 12.5899L14.9739 8.59609L12.9408 6.56299L7.11621 12.3875Z" fill="#CAD1D1"/>
<path d="M19.0424 17.5719L13.4655 18.7528C13.2287 19.0756 12.9111 19.335 12.5432 19.496C11.9857 19.7401 11.3709 19.7474 10.8151 19.518L6.79491 17.8821L7.31354 16.6074L11.1998 18.2431C11.6687 18.4331 12.2027 18.2046 12.3891 17.7342C12.5728 17.2705 12.3496 16.7452 11.8883 16.5557L6.79667 14.4034C5.84895 14.0121 4.80296 14.0498 3.88111 14.4991C3.78224 14.5473 0 16.4962 0 16.4962V21.886L4.70667 19.3629L11.3581 22.0001L21.9997 19.7485C21.9998 19.7484 21.9999 19.7483 22 19.7482C21.7487 18.3661 20.4245 17.3205 19.0424 17.5719Z" fill="#CAD1D1"/>
</svg>
