<svg width="22" height="22" viewBox="0 0 22 22" fill="none" xmlns="http://www.w3.org/2000/svg">
<path d="M11 0C4.9346 0 0 4.9346 0 11C0 17.0654 4.9346 22 11 22C17.0654 22 22 17.0654 22 11C22 4.9346 17.0654 0 11 0ZM5.66667 12.6667C4.74767 12.6667 4 11.919 4 11C4 10.081 4.74767 9.33333 5.66667 9.33333C6.58567 9.33333 7.33333 10.081 7.33333 11C7.33333 11.919 6.58567 12.6667 5.66667 12.6667ZM11 12.6667C10.081 12.6667 9.33333 11.919 9.33333 11C9.33333 10.081 10.081 9.33333 11 9.33333C11.919 9.33333 12.6667 10.081 12.6667 11C12.6667 11.919 11.919 12.6667 11 12.6667ZM16.3333 12.6667C15.4143 12.6667 14.6667 11.919 14.6667 11C14.6667 10.081 15.4143 9.33333 16.3333 9.33333C17.2523 9.33333 18 10.081 18 11C18 11.919 17.2523 12.6667 16.3333 12.6667Z" fill="#009688"/>
</svg>
