<svg width="22" height="22" viewBox="0 0 22 22" fill="none" xmlns="http://www.w3.org/2000/svg">
<path d="M8.19971 12.8075L10.0406 21.4972H11.9597L13.8006 12.8075H8.19971Z" fill="#009688"/>
<path d="M20.1419 10.8604L19.4847 8.58284L18.8911 9.15368C18.416 9.61063 17.7243 9.76416 17.1019 9.54698C16.1395 9.21118 15.07 8.95244 13.9255 8.78784C12.9942 8.65439 12.0131 8.58284 11.0002 8.58284C9.98726 8.58284 9.00615 8.65439 8.07484 8.78784C6.93029 8.95237 5.8608 9.21112 4.89847 9.54698C4.27601 9.76422 3.58441 9.6107 3.1092 9.15368L2.51562 8.58284L1.8584 10.8604V12.8488L8.69651 13.7875H13.3037L20.1418 12.8488V10.8604H20.1419Z" fill="#009688"/>
<path d="M14.9334 11.086L14.7015 12.6947C14.6518 13.0402 14.5321 13.3607 14.3589 13.6427C13.9179 14.3598 13.1263 14.828 12.2385 14.828H9.7609C8.8731 14.828 8.08152 14.3598 7.64056 13.6427C7.46735 13.3607 7.34769 13.0402 7.2979 12.6947L7.06609 11.086C6.96488 10.3811 7.18245 9.71261 7.60236 9.21539C7.83384 8.94123 8.16537 8.77171 8.52163 8.72898C9.31801 8.63347 10.1477 8.58284 10.9997 8.58284C11.8518 8.58284 12.6814 8.63347 13.4778 8.72898C13.8341 8.77171 14.1655 8.9413 14.3971 9.21539C14.817 9.71261 15.0346 10.3811 14.9334 11.086Z" fill="#009688"/>
<path d="M14.5493 12.3016C14.0835 13.0592 13.2471 13.5539 12.3091 13.5539H9.69132C8.75333 13.5539 7.91694 13.0592 7.45106 12.3016C7.30109 12.0575 7.18998 11.7858 7.12549 11.4948L7.29837 12.6946C7.34817 13.0401 7.46783 13.3606 7.64104 13.6426C8.08199 14.3597 8.87358 14.8279 9.76138 14.8279H12.239C13.1268 14.8279 13.9184 14.3597 14.3594 13.6426C14.5326 13.3606 14.6522 13.0401 14.702 12.6946L14.8749 11.4948C14.8104 11.7858 14.6992 12.0575 14.5493 12.3016Z" fill="#009688"/>
<path d="M11.0004 12.6019C11.5745 12.6019 12.0398 12.1366 12.0398 11.5625C12.0398 10.9884 11.5745 10.523 11.0004 10.523C10.4263 10.523 9.96094 10.9884 9.96094 11.5625C9.96094 12.1366 10.4263 12.6019 11.0004 12.6019Z" fill="#EFF8F8"/>
<path d="M11 0C4.92485 0 0 4.92485 0 11C0 17.0751 4.92485 21.9999 11 21.9999C17.0751 21.9999 22 17.0751 22 11C22 4.92491 17.0751 0 11 0ZM11 19.6423C6.22699 19.6423 2.35772 15.773 2.35772 10.9999C2.35772 6.22686 6.22699 2.35766 11 2.35766C15.773 2.35766 19.6423 6.22693 19.6423 11C19.6423 15.7731 15.773 19.6423 11 19.6423Z" fill="#009688"/>
<path d="M11 20.4665C5.18268 20.4665 0.420818 15.9505 0.0270659 10.2333C0.00958313 10.4866 0 10.7422 0 11C0 17.0751 4.92485 22 11 22C17.0751 22 22 17.0751 22 11C22 10.7422 21.9904 10.4866 21.9729 10.2333C21.5792 15.9505 16.8173 20.4665 11 20.4665Z" fill="#009688"/>
</svg>
