<svg width="22" height="22" viewBox="0 0 22 22" fill="none" xmlns="http://www.w3.org/2000/svg">
<g clip-path="url(#clip0)">
<path d="M13.5537 9.30733V4.7655C13.5537 4.38034 13.2414 4.06807 12.8562 4.06807H6.75159V1.81947C6.75159 1.20412 6.00891 0.890101 5.56757 1.31985L0.210749 6.53675C-0.0705765 6.81071 -0.0699226 7.26268 0.210749 7.53603L5.56757 12.753C6.00834 13.1822 6.75159 12.8694 6.75159 12.2534V10.0048H12.8562C13.2414 10.0048 13.5537 9.69248 13.5537 9.30733Z" fill="#009688"/>
<path d="M21.7892 14.4647L16.4324 9.24774C15.9916 8.81852 15.2484 9.1314 15.2484 9.74736V11.996H9.14372C8.75852 11.996 8.44629 12.3082 8.44629 12.6934V17.2352C8.44629 17.6204 8.75852 17.9327 9.14372 17.9327H15.2484V20.1812C15.2484 20.7985 15.9937 21.1081 16.4324 20.6809L21.7892 15.4639C22.0705 15.19 22.0699 14.7381 21.7892 14.4647Z" fill="#009688"/>
</g>
<defs>
<clipPath id="clip0">
<rect width="22" height="22" fill="white"/>
</clipPath>
</defs>
</svg>
