<svg width="18" height="24" viewBox="0 0 18 24" fill="none" xmlns="http://www.w3.org/2000/svg">
<path d="M14.4 8.8H5.6V4.8C5.6 3.95131 5.93714 3.13737 6.53726 2.53726C7.13737 1.93714 7.95131 1.6 8.8 1.6C9.64869 1.6 10.4626 1.93714 11.0627 2.53726C11.6629 3.13737 12 3.95131 12 4.8C12 5.01217 12.0843 5.21566 12.2343 5.36569C12.3843 5.51571 12.5878 5.6 12.8 5.6C13.0122 5.6 13.2157 5.51571 13.3657 5.36569C13.5157 5.21566 13.6 5.01217 13.6 4.8C13.6 3.52696 13.0943 2.30606 12.1941 1.40589C11.2939 0.505713 10.073 0 8.8 0C7.52696 0 6.30606 0.505713 5.40589 1.40589C4.50571 2.30606 4 3.52696 4 4.8V8.8H3.2C2.35159 8.80093 1.5382 9.13837 0.938282 9.73828C0.338366 10.3382 0.000926428 11.1516 0 12V20.8C0.000926428 21.6484 0.338366 22.4618 0.938282 23.0617C1.5382 23.6616 2.35159 23.9991 3.2 24H14.4C15.2484 23.9991 16.0618 23.6616 16.6617 23.0617C17.2616 22.4618 17.5991 21.6484 17.6 20.8V12C17.5991 11.1516 17.2616 10.3382 16.6617 9.73828C16.0618 9.13837 15.2484 8.80093 14.4 8.8Z" fill="#009688"/>
</svg>
