<svg width="22" height="22" viewBox="0 0 22 22" fill="none" xmlns="http://www.w3.org/2000/svg">
<path d="M21.5295 6.95083L15.0477 0.469086C14.4427 -0.136831 13.3849 -0.136831 12.779 0.469086L11.8834 1.36467C11.2509 1.99808 11.0336 2.9175 11.316 3.76542C11.4333 4.1165 11.3435 4.49692 11.0813 4.75908L8.45507 7.38716C8.23782 7.6035 7.9509 7.72266 7.64473 7.72266H6.5704C5.89665 7.72266 5.26323 7.98483 4.7884 8.4615L4.35298 8.896C4.04957 9.19941 3.88273 9.60183 3.88273 10.0299C3.88273 10.458 4.04957 10.8613 4.35298 11.1638L6.9499 13.7607L0.268317 20.4341C-0.0900998 20.7916 -0.0900998 21.3718 0.2674 21.7302C0.447067 21.9099 0.681733 21.9997 0.9164 21.9997C1.15107 21.9997 1.38482 21.9099 1.56448 21.7321L8.24698 15.0578L10.8356 17.6465C11.1381 17.9499 11.5415 18.1167 11.9696 18.1167C12.3976 18.1167 12.801 17.9499 13.1035 17.6465L13.5389 17.2111C14.0156 16.7344 14.2777 16.1019 14.2777 15.4291V14.3547C14.2777 14.0532 14.4006 13.758 14.6132 13.5444L17.2404 10.9172C17.5016 10.6551 17.8811 10.5643 18.235 10.6826C19.0829 10.9649 20.0032 10.7467 20.6348 10.1152L21.5304 9.21958C22.1556 8.59441 22.1556 7.57691 21.5295 6.95083Z" fill="#92949c"/>
</svg>
