<svg width="50" height="50" viewBox="0 0 50 50" fill="none" xmlns="http://www.w3.org/2000/svg">
<path d="M25 50C38.8071 50 50 38.8071 50 25C50 11.1929 38.8071 0 25 0C11.1929 0 0 11.1929 0 25C0 38.8071 11.1929 50 25 50Z" fill="#009688"/>
<path d="M45.687 13.6328V39.042C44.2202 41.1982 42.4253 43.1143 40.3735 44.7158H9.62744C7.57568 43.1143 5.78076 41.1982 4.31396 39.042V13.6328C4.31396 12.1377 5.17334 10.8438 6.42432 10.2168C6.93799 9.95996 7.51709 9.81543 8.13037 9.81543H41.8706C43.978 9.81543 45.687 11.5244 45.687 13.6328Z" fill="#FFFBEB"/>
<path d="M45.6864 29.4824V39.042C44.2196 41.1982 42.4247 43.1143 40.3729 44.7158H30.453L31.4706 41.8311L32.8456 37.9336L34.4989 33.2471L35.2196 33.0049L41.7821 30.7959L45.6864 29.4824Z" fill="#D8E0C9"/>
<path d="M45.6866 15.5332H4.31274V7.91632C4.31274 5.80811 6.02173 4.09912 8.12993 4.09912H41.8693C43.9775 4.09912 45.6865 5.80811 45.6865 7.91632V15.5332H45.6866Z" fill="#DD544C"/>
<path d="M45.2838 6.20969C44.6573 4.95832 43.364 4.09875 41.8694 4.09875H39.3539H34.0062H13.8822H8.53452H8.12993C6.02173 4.09875 4.31274 5.80784 4.31274 7.91594V15.5328H6.42368V8.08313C6.42368 7.04846 7.26245 6.20969 8.29712 6.20969H8.53462V10.1324C8.53462 11.6092 9.73169 12.8063 11.2084 12.8063C12.6852 12.8063 13.8823 11.6092 13.8823 10.1324V6.20969H34.0063V10.1324C34.0063 11.6092 35.2034 12.8063 36.6801 12.8063C38.1568 12.8063 39.354 11.6092 39.354 10.1324V6.20969H45.2838Z" fill="#C63B38"/>
<path d="M12.2637 12.8062C10.7869 12.8062 9.58984 11.6091 9.58984 10.1323V2.67383C9.58984 1.19707 10.7869 0 12.2637 0C13.7403 0 14.9375 1.19707 14.9375 2.67383V10.1324C14.9375 11.6091 13.7404 12.8062 12.2637 12.8062Z" fill="#F3D75C"/>
<path d="M11.7008 10.1324V2.67383C11.7008 1.57197 12.3674 0.626172 13.3191 0.216797C12.9953 0.0774414 12.6386 0 12.2637 0C10.7869 0 9.58984 1.19707 9.58984 2.67383V10.1324C9.58984 11.6092 10.7869 12.8063 12.2637 12.8063C12.6386 12.8063 12.9953 12.7288 13.3191 12.5895C12.3674 12.1801 11.7008 11.2342 11.7008 10.1324Z" fill="#E8C63A"/>
<path d="M37.736 12.8062C36.2592 12.8062 35.0621 11.6091 35.0621 10.1323V2.67383C35.0621 1.19707 36.2592 0 37.736 0C39.2126 0 40.4098 1.19707 40.4098 2.67383V10.1324C40.4098 11.6091 39.2126 12.8062 37.736 12.8062Z" fill="#F3D75C"/>
<path d="M37.1731 10.1324V2.67383C37.1731 1.57197 37.8397 0.626172 38.7914 0.216797C38.4676 0.0774414 38.1109 0 37.736 0C36.2593 0 35.0621 1.19707 35.0621 2.67383V10.1324C35.0621 11.6092 36.2592 12.8063 37.736 12.8063C38.1109 12.8063 38.4676 12.7288 38.7914 12.5895C37.8397 12.1801 37.1731 11.2342 37.1731 10.1324Z" fill="#E8C63A"/>
<path d="M14.234 24.6623H8.95664C8.54863 24.6623 8.21777 24.3316 8.21777 23.9235V18.6462C8.21777 18.2382 8.54854 17.9073 8.95664 17.9073H14.2339C14.6419 17.9073 14.9728 18.2381 14.9728 18.6462V23.9235C14.9728 24.3316 14.642 24.6623 14.234 24.6623Z" fill="#D8E0C9"/>
<path d="M23.1694 24.6623H17.8922C17.4842 24.6623 17.1533 24.3316 17.1533 23.9235V18.6462C17.1533 18.2382 17.4841 17.9073 17.8922 17.9073H23.1694C23.5774 17.9073 23.9083 18.2381 23.9083 18.6462V23.9235C23.9083 24.3316 23.5775 24.6623 23.1694 24.6623Z" fill="#D8E0C9"/>
<path d="M32.1063 24.6623H26.8291C26.4211 24.6623 26.0902 24.3316 26.0902 23.9235V18.6462C26.0902 18.2382 26.421 17.9073 26.8291 17.9073H32.1063C32.5143 17.9073 32.8451 18.2381 32.8451 18.6462V23.9235C32.8451 24.3316 32.5143 24.6623 32.1063 24.6623Z" fill="#D8E0C9"/>
<path d="M41.0429 24.6623H35.7656C35.3576 24.6623 35.0267 24.3316 35.0267 23.9235V18.6462C35.0267 18.2382 35.3575 17.9073 35.7656 17.9073H41.0428C41.4509 17.9073 41.7816 18.2381 41.7816 18.6462V23.9235C41.7817 24.3316 41.4509 24.6623 41.0429 24.6623Z" fill="#D8E0C9"/>
<path d="M14.234 33.2466H8.95664C8.54863 33.2466 8.21777 32.9158 8.21777 32.5077V27.2305C8.21777 26.8225 8.54854 26.4917 8.95664 26.4917H14.2339C14.6419 26.4917 14.9728 26.8225 14.9728 27.2305V32.5077C14.9728 32.9158 14.642 33.2466 14.234 33.2466Z" fill="#D8E0C9"/>
<path d="M23.1694 33.2466H17.8922C17.4842 33.2466 17.1533 32.9158 17.1533 32.5077V27.2305C17.1533 26.8225 17.4841 26.4917 17.8922 26.4917H23.1694C23.5774 26.4917 23.9083 26.8225 23.9083 27.2305V32.5077C23.9083 32.9158 23.5775 33.2466 23.1694 33.2466Z" fill="#D8E0C9"/>
<path d="M32.1063 33.2466H26.8291C26.4211 33.2466 26.0902 32.9158 26.0902 32.5077V27.2305C26.0902 26.8225 26.421 26.4917 26.8291 26.4917H32.1063C32.5143 26.4917 32.8451 26.8225 32.8451 27.2305V32.5077C32.8451 32.9158 32.5143 33.2466 32.1063 33.2466Z" fill="#D8E0C9"/>
<path d="M41.0429 33.2466H35.7656C35.3576 33.2466 35.0267 32.9158 35.0267 32.5077V27.2305C35.0267 26.8225 35.3575 26.4917 35.7656 26.4917H41.0428C41.4509 26.4917 41.7816 26.8225 41.7816 27.2305V32.5077C41.7817 32.9158 41.4509 33.2466 41.0429 33.2466Z" fill="#D8E0C9"/>
<path d="M14.234 41.8311H8.95664C8.54863 41.8311 8.21777 41.5003 8.21777 41.0923V35.815C8.21777 35.407 8.54854 35.0762 8.95664 35.0762H14.2339C14.6419 35.0762 14.9728 35.4069 14.9728 35.815V41.0923C14.9728 41.5003 14.642 41.8311 14.234 41.8311Z" fill="#D8E0C9"/>
<path d="M23.1694 41.8311H17.8922C17.4842 41.8311 17.1533 41.5003 17.1533 41.0923V35.815C17.1533 35.407 17.4841 35.0762 17.8922 35.0762H23.1694C23.5774 35.0762 23.9083 35.4069 23.9083 35.815V41.0923C23.9083 41.5003 23.5775 41.8311 23.1694 41.8311Z" fill="#D8E0C9"/>
<path d="M32.1063 41.8311H26.8291C26.4211 41.8311 26.0902 41.5003 26.0902 41.0923V35.815C26.0902 35.407 26.421 35.0762 26.8291 35.0762H32.1063C32.5143 35.0762 32.8451 35.4069 32.8451 35.815V41.0923C32.8451 41.5003 32.5143 41.8311 32.1063 41.8311Z" fill="#D8E0C9"/>
<path d="M20.9609 32.0753C20.7666 32.0753 20.5803 31.9982 20.443 31.8609L18.8963 30.314C18.6103 30.0279 18.6103 29.5642 18.8963 29.2782C19.1823 28.9922 19.6461 28.9923 19.932 29.2783L20.9609 30.3071L23.3901 27.8778C23.6761 27.5918 24.1399 27.5918 24.4258 27.8778C24.7119 28.1639 24.7119 28.6276 24.4258 28.9136L21.4786 31.8609C21.3414 31.9982 21.1552 32.0753 20.9609 32.0753Z" fill="#DD544C"/>
<path d="M38.8343 23.4909C38.64 23.4909 38.4537 23.4137 38.3164 23.2764L36.7697 21.7296C36.4837 21.4435 36.4837 20.9799 36.7697 20.6938C37.0557 20.4079 37.5195 20.4078 37.8055 20.6939L38.8343 21.7227L41.2635 19.2934C41.5495 19.0075 42.0133 19.0075 42.2992 19.2934C42.5853 19.5796 42.5853 20.0432 42.2992 20.3293L39.352 23.2764C39.2147 23.4137 39.0285 23.4909 38.8343 23.4909Z" fill="#DD544C"/>
<path d="M12.0254 32.0753C11.8312 32.0753 11.6448 31.9982 11.5075 31.8609L9.96074 30.3141C9.67471 30.0279 9.67471 29.5642 9.96074 29.2782C10.2468 28.9923 10.7105 28.9923 10.9965 29.2782L12.0254 30.3071L14.4546 27.8778C14.7406 27.5918 15.2044 27.5918 15.4903 27.8778C15.7764 28.1639 15.7764 28.6276 15.4903 28.9136L12.5433 31.8609C12.406 31.9982 12.2196 32.0753 12.0254 32.0753Z" fill="#DD544C"/>
<path d="M30.4529 44.7161V33.2996C30.4529 31.1914 32.1619 29.4824 34.2701 29.4824H45.6866L30.4529 44.7161Z" fill="#FFFBEB"/>
<path d="M30.4539 33.2996L17.8588 44.7161H30.4539V33.2996Z" fill="#D8E0C9"/>
<path d="M21.0411 41.8308H23.1708C23.5788 41.8308 23.9097 41.5 23.9097 41.092V39.2307L21.0411 41.8308Z" fill="#C7CEB6"/>
<path d="M30.4537 35.076H28.4936L26.0912 37.2537V41.0922C26.0912 41.5002 26.4219 41.8309 26.83 41.8309H30.4537V35.076Z" fill="#C7CEB6"/>
</svg>
