<svg width="50" height="50" viewBox="0 0 50 50" fill="none" xmlns="http://www.w3.org/2000/svg">
<g clip-path="url(#clip0)">
<path d="M25.0092 0.0090332C13.7782 0.0090332 4.27765 7.41738 1.12769 17.6139L13.0854 38.5592L36.1997 47.3515C44.3832 43.2463 50.0001 34.779 50.0001 25C50.0001 11.198 38.8113 0.0090332 25.0092 0.0090332Z" fill="#009688"/>
<path d="M35.3073 40.5446H40.4586C43.3342 40.5446 45.9601 38.9267 47.2696 36.3666C47.2803 36.3456 47.2911 36.3247 47.3016 36.3037C47.8464 35.2315 48.1296 34.0453 48.1296 32.8425V16.6013C48.1296 15.842 47.9688 15.0899 47.6464 14.4024C47.635 14.3782 47.6237 14.3541 47.6122 14.33C46.9945 13.0237 45.8421 12.0555 44.4665 11.613C43.2399 11.2184 42.1302 10.1763 42.0525 8.60754C41.9884 7.3147 41.4056 6.0968 40.3856 5.29994C40.372 5.28927 40.3584 5.27871 40.3447 5.26804C39.1166 4.31277 37.4664 4.09829 36.0226 4.67793L7.16025 16.2629C5.76624 14.3494 2.20375 14.1326 1.12822 17.614C-3.973 34.1254 8.89595 50.8048 26.2464 49.9585C26.2545 49.9589 26.2625 49.959 26.2706 49.9594C29.8268 49.7826 33.1865 48.8614 36.1991 47.35V47.3412C38.0753 46.1967 37.143 43.1862 34.849 43.372L34.8366 43.373C34.2008 43.424 33.6359 42.9454 33.6116 42.308C33.5747 41.3406 34.3481 40.5446 35.3073 40.5446ZM29.8058 42.1727C29.7638 42.7665 29.2099 43.1855 28.6234 43.0839C27.8095 42.943 27.0044 42.7626 26.2112 42.5436C25.7757 42.4234 25.477 42.0227 25.4789 41.5708L25.479 41.5485C25.4812 40.9934 25.9319 40.5447 26.4869 40.5447H28.8033C29.3495 40.5447 29.7956 40.9805 29.8099 41.5265C29.8161 41.7568 29.8202 41.969 29.8058 42.1727Z" fill="#009688"/>
<path d="M27.3004 39.8857V42.0524C27.3004 43.2491 26.3303 44.2191 25.1336 44.2191C23.937 44.2191 22.967 43.2491 22.967 42.0524V39.8857H19.1683V47.8868H31.099V39.8857H27.3004Z" fill="#5E3881"/>
<path d="M45.6184 14.1929C45.6184 12.7918 44.4826 11.656 43.0816 11.656H10.3347C10.3349 11.6669 10.3365 11.6775 10.3365 11.6884V40.5447H43.0816C44.4826 40.5447 45.6184 39.4089 45.6184 38.0078V14.1929Z" fill="#8659B9"/>
<path d="M10.6816 38.0079V14.1929C10.6816 12.7918 11.8174 11.656 13.2184 11.656H7.18579C5.78473 11.656 4.64893 12.7918 4.64893 14.1929V38.0079C4.64893 39.409 5.78473 40.5448 7.18579 40.5448H13.2183C11.8173 40.5447 10.6816 39.409 10.6816 38.0079Z" fill="#5E3881"/>
<path d="M12.8126 14.8552H42.258V35.1143H12.8126V14.8552Z" fill="white"/>
<path d="M16.5796 48.5321C19.1083 49.438 21.8254 49.9474 24.6565 49.9866V46.0769H16.5796V48.5321Z" fill="#5E3881"/>
<path d="M21.3116 48.157V48.4016C21.3116 48.9374 21.5159 49.4241 21.8484 49.7928C22.8835 49.9234 23.9384 49.9911 25.009 49.9911C28.0606 49.9911 30.9841 49.4432 33.6876 48.442V46.0769H23.3919C22.243 46.0769 21.3116 47.0082 21.3116 48.157Z" fill="#8659B9"/>
<path d="M42.2581 32.9024H36.5712L35.4902 31.8214L36.4821 31.2956C36.9363 31.0548 36.8618 30.3825 36.3659 30.247L31.6778 28.9659C31.2541 28.85 30.8651 29.2391 30.981 29.6628C31.4268 31.2941 30.1989 32.9025 28.5078 32.9025H27.7143C26.66 32.9025 25.723 32.253 25.3285 31.2754C24.9618 30.3666 24.0741 29.697 22.9949 29.697H18.1652C16.9853 29.697 15.9804 28.7795 15.9385 27.6004C15.8944 26.3624 16.8849 25.345 18.1131 25.345H18.1441C19.5534 25.345 20.7407 24.1917 20.7139 22.7827C20.688 21.4169 19.5728 20.3176 18.2007 20.3176C16.9566 20.3176 15.9471 19.3141 15.9371 18.0725C15.9229 16.3032 14.5077 14.8555 12.7385 14.8555H8.00928V35.002H12.8126V35.1146H35.4757L37.221 36.8599L38.8747 35.2062L38.7832 35.1147H42.2581V32.9024Z" fill="#D0FBFD"/>
<path d="M8.00928 34.7243H42.2581V37.3454H8.00928V34.7243Z" fill="#05CDFF"/>
<path d="M37.3896 30.1574C37.8438 29.9166 37.7694 29.2443 37.2735 29.1088L32.5854 27.8277C32.1616 27.7119 31.7727 28.1009 31.8885 28.5246L33.1696 33.2127C33.3051 33.7085 33.9775 33.783 34.2182 33.3288L34.744 32.3369L38.1286 35.7215L39.7823 34.0678L36.3977 30.6832L37.3896 30.1574Z" fill="#F5415F"/>
<path d="M39.5761 20.9337V6.18304C39.5761 4.91143 38.5453 3.88062 37.2737 3.88062H18.6503V20.9337H39.5761Z" fill="#ECD833"/>
<path d="M38.1161 19.2093V13.924C38.1161 13.1718 37.5063 12.562 36.7541 12.562H35.4653C34.7132 12.562 24.8454 19.2243 24.8456 19.2318C24.8635 19.9636 24.1836 20.5713 23.4516 20.5713H21.2915C20.2105 20.5713 19.3341 19.6949 19.3341 18.6138V3.88062H12.7261C11.6451 3.88062 10.7687 4.75693 10.7687 5.83803V23.5383C10.7687 24.6193 11.645 25.4957 12.7261 25.4957H37.6187C38.6997 25.4957 39.5761 24.6194 39.5761 23.5383V20.5713C39.5761 20.5713 38.1182 20.6793 38.1161 19.2093Z" fill="#ECC32E"/>
<path d="M37.2262 19.1193V13.6874C37.2262 13.0659 36.7224 12.5621 36.1009 12.5621H28.3082V19.1193H37.2262Z" fill="white"/>
<path d="M29.3819 18.9427C28.8823 18.9427 28.4772 18.5377 28.4772 18.038C28.4772 17.5156 28.9007 17.0922 29.4231 17.0922H33.3639C33.5836 17.0922 33.7798 16.9316 33.8006 16.7129C33.8246 16.462 33.6279 16.251 33.382 16.251H28.917C28.6741 16.251 28.4771 16.054 28.4771 15.8111C28.4771 15.5681 28.6741 15.3711 28.917 15.3711H30.9939C31.2136 15.3711 31.4098 15.2106 31.4306 14.9919C31.4546 14.741 31.2579 14.53 31.012 14.53H28.917C28.6741 14.53 28.4771 14.333 28.4771 14.09V12.5621H25.7027C25.2031 12.5621 24.798 12.9672 24.798 13.4668V19.6417C24.798 20.1413 25.2031 20.5463 25.7027 20.5463H36.3214C36.8211 20.5463 37.2261 20.1413 37.2261 19.6417V18.9426H29.3819V18.9427Z" fill="#D0FBFD"/>
<path d="M39.0663 2.44812H16.9861V6.80542H40.2437V3.62551C40.2437 2.97532 39.7166 2.44812 39.0663 2.44812Z" fill="#F6E738"/>
<path d="M17.5399 3.85887C17.5399 3.17042 18.098 2.44812 18.7866 2.44812H11.2701C10.5817 2.44812 10.0234 3.00624 10.0234 3.69478V6.80542H17.5399V3.85887Z" fill="#ECD833"/>
</g>
<defs>
<clipPath id="clip0">
<rect width="50" height="50" fill="white"/>
</clipPath>
</defs>
</svg>
