<svg width="50" height="50" viewBox="0 0 50 50" fill="none" xmlns="http://www.w3.org/2000/svg">
<path d="M0 24.4511C0 10.9637 11.1655 0.026795 24.9493 4.84582e-05C38.7102 -0.0265982 49.971 10.9398 49.9999 24.3985C50.0151 31.4356 46.9907 37.782 42.1389 42.2521C37.6636 38.1289 31.6335 35.602 25 35.602C18.918 35.602 13.3433 37.7262 9.00909 41.2574C8.3295 41.8111 7.32562 41.7654 6.72205 41.1331C2.55194 36.7643 0 30.8992 0 24.4511Z" fill="#009688"/>
<path d="M30.9032 2.4389L37.8445 12.0218C37.9374 12.1502 37.998 12.2981 38.0214 12.4537L41.5167 35.7174C41.5553 35.9742 41.4887 36.2349 41.3349 36.4465C37.8174 41.2852 32.3649 44.7669 25.8849 45.6983C19.4047 46.6296 13.1586 44.8292 8.36657 41.1847C8.15698 41.0253 8.01657 40.7945 7.9779 40.5375L3.21555 8.8413C3.1379 8.32473 3.48055 7.83691 4.00137 7.72244L29.8468 2.042C30.2485 1.95377 30.6652 2.11026 30.9032 2.4389Z" fill="#49B4FA"/>
<path d="M35.3573 5.07765L43.2556 14.7337C43.3279 14.8223 43.3674 14.9321 43.3674 15.0454V41.0389C38.8 45.8744 32.2616 48.9023 25.0001 48.9023C17.7385 48.9023 11.2001 45.8744 6.63269 41.0389V6.38733C6.63269 5.56058 7.318 4.89032 8.1633 4.89032H34.9589C35.1139 4.89032 35.2605 4.95918 35.3573 5.07765Z" fill="#BBE0FB"/>
<path d="M9.08167 43.3059C8.21422 42.6045 7.39596 41.847 6.63269 41.039V6.38733C6.63269 5.56058 7.318 4.89032 8.1633 4.89032H10.6123C9.76698 4.89032 9.08167 5.56058 9.08167 6.38733V43.3059Z" fill="#91CEFB"/>
<path d="M35.3573 5.07751L43.2556 14.7337C43.2895 14.7751 43.3161 14.8213 43.3349 14.8703H36.2245C35.6609 14.8703 35.2041 14.4235 35.2041 13.8723V4.95166C35.2625 4.983 35.3147 5.02551 35.3573 5.07751Z" fill="#FFF5F5"/>
<path d="M11.8877 11.1278C11.8877 10.7144 12.2303 10.3793 12.653 10.3793H19.2857C19.7083 10.3793 20.051 10.7144 20.051 11.1278C20.051 11.5411 19.7083 11.8763 19.2857 11.8763H12.653C12.2303 11.8763 11.8877 11.5411 11.8877 11.1278ZM29.7449 14.8703H12.653C12.2303 14.8703 11.8877 15.2054 11.8877 15.6188C11.8877 16.0322 12.2303 16.3673 12.653 16.3673H29.7449C30.1675 16.3673 30.5102 16.0322 30.5102 15.6188C30.5102 15.2054 30.1675 14.8703 29.7449 14.8703ZM22.602 17.8643H12.653C12.2303 17.8643 11.8877 18.1994 11.8877 18.6128C11.8877 19.0262 12.2303 19.3613 12.653 19.3613H22.602C23.0246 19.3613 23.3673 19.0262 23.3673 18.6128C23.3673 18.1994 23.0246 17.8643 22.602 17.8643ZM19.5408 29.8404H12.653C12.2303 29.8404 11.8877 30.1755 11.8877 30.5889C11.8877 31.0022 12.2303 31.3374 12.653 31.3374H19.5408C19.9634 31.3374 20.3061 31.0022 20.3061 30.5889C20.3061 30.1755 19.9634 29.8404 19.5408 29.8404ZM28.9795 29.8404H26.1734C25.7508 29.8404 25.4081 30.1755 25.4081 30.5889C25.4081 31.0022 25.7508 31.3374 26.1734 31.3374H28.9795C29.4022 31.3374 29.7449 31.0022 29.7449 30.5889C29.7449 30.1755 29.4022 29.8404 28.9795 29.8404Z" fill="#49B4FA"/>
<path d="M37.653 30.5889C37.653 31.0023 37.3104 31.3374 36.8877 31.3374H34.0816C33.6589 31.3374 33.3163 31.0023 33.3163 30.5889C33.3163 30.1755 33.6589 29.8404 34.0816 29.8404H36.8877C37.3104 29.8404 37.653 30.1755 37.653 30.5889ZM17.4999 42.3154H12.653C12.2303 42.3154 11.8877 42.6506 11.8877 43.0639C11.8877 43.4773 12.2303 43.8125 12.653 43.8125H17.4999C17.9226 43.8125 18.2653 43.4773 18.2653 43.0639C18.2653 42.6506 17.9226 42.3154 17.4999 42.3154ZM28.9795 42.3154H25.153C24.7304 42.3154 24.3877 42.6506 24.3877 43.0639C24.3877 43.4773 24.7304 43.8125 25.153 43.8125H28.9795C29.4022 43.8125 29.7449 43.4773 29.7449 43.0639C29.7449 42.6506 29.4022 42.3154 28.9795 42.3154Z" fill="#0280E3"/>
<path d="M39.6939 22.3554V27.3454C39.6939 27.621 39.4654 27.8444 39.1837 27.8444H10.6123C10.3305 27.8444 10.1021 27.621 10.1021 27.3454V22.3554C10.1021 22.0798 10.3305 21.8564 10.6123 21.8564H39.1837C39.4654 21.8564 39.6939 22.0798 39.6939 22.3554ZM39.1837 33.3334H10.6123C10.3305 33.3334 10.1021 33.5569 10.1021 33.8324V38.8225C10.1021 39.098 10.3305 39.3215 10.6123 39.3215H39.1837C39.4654 39.3215 39.6939 39.098 39.6939 38.8225V33.8324C39.6939 33.5569 39.4654 33.3334 39.1837 33.3334Z" fill="#E0F7FA"/>
<path d="M37.6531 24.8504C37.6531 25.2637 37.3105 25.5989 36.8878 25.5989H34.0817C33.6591 25.5989 33.3164 25.2637 33.3164 24.8504C33.3164 24.437 33.6591 24.1019 34.0817 24.1019H36.8878C37.3105 24.1019 37.6531 24.437 37.6531 24.8504Z" fill="#01988C"/>
<path d="M25.4081 24.8504C25.4081 24.437 25.7508 24.1019 26.1734 24.1019H28.9795C29.4022 24.1019 29.7449 24.437 29.7449 24.8504C29.7449 25.2637 29.4022 25.5989 28.9795 25.5989H26.1734C25.7508 25.5989 25.4081 25.2637 25.4081 24.8504ZM16.4795 35.5789H12.653C12.2303 35.5789 11.8877 35.914 11.8877 36.3274C11.8877 36.7408 12.2303 37.0759 12.653 37.0759H16.4795C16.9022 37.0759 17.2448 36.7408 17.2448 36.3274C17.2448 35.914 16.9022 35.5789 16.4795 35.5789ZM28.9795 35.5789H26.1734C25.7508 35.5789 25.4081 35.914 25.4081 36.3274C25.4081 36.7408 25.7508 37.0759 26.1734 37.0759H28.9795C29.4022 37.0759 29.7449 36.7408 29.7449 36.3274C29.7449 35.914 29.4022 35.5789 28.9795 35.5789ZM17.4999 24.1019H12.653C12.2303 24.1019 11.8877 24.437 11.8877 24.8504C11.8877 25.2637 12.2303 25.5989 12.653 25.5989H17.4999C17.9226 25.5989 18.2653 25.2637 18.2653 24.8504C18.2653 24.437 17.9226 24.1019 17.4999 24.1019Z" fill="#0AB59E"/>
<path d="M49.4475 47.8582L46.6938 46.8458C46.2227 46.6727 45.6928 46.8613 45.4457 47.2901L44.0016 49.7968C43.8305 50.0939 43.3817 50.0579 43.2624 49.7374L39.7269 40.237L46.439 37.8477L49.9745 47.3481C50.0939 47.6685 49.7739 47.9782 49.4475 47.8582Z" fill="#FD2AA7"/>
<path d="M42.1428 40.237L38.6073 49.7374C38.488 50.0578 38.0393 50.094 37.8681 49.7967L36.424 47.2901C36.177 46.8612 35.6471 46.6726 35.176 46.8457L32.4223 47.8581C32.0958 47.9781 31.7758 47.6684 31.8951 47.3479L35.4307 37.8475L42.1428 40.237Z" fill="#D80D80"/>
<path d="M48.1572 37.539C47.7379 38.0696 47.5544 38.7397 47.6462 39.4044C47.6972 39.7732 47.6456 40.1061 47.4794 40.3877C47.3131 40.6693 47.0442 40.8795 46.6921 41.0207C46.0576 41.2752 45.5562 41.7657 45.2959 42.3863C45.1515 42.7306 44.9366 42.9937 44.6486 43.1563C44.3607 43.3188 44.0203 43.3693 43.6432 43.3194C42.9636 43.2296 42.2786 43.4092 41.736 43.8192C41.4349 44.0468 41.1143 44.1695 40.7818 44.1695C40.4492 44.1695 40.1287 44.0468 39.8276 43.8192C39.2851 43.4091 38.6 43.2296 37.9204 43.3194C37.5433 43.3693 37.2029 43.3188 36.915 43.1563C36.627 42.9937 36.4121 42.7306 36.2677 42.3863C36.0075 41.7657 35.506 41.2752 34.8715 41.0207C34.5194 40.8795 34.2505 40.6693 34.0842 40.3877C33.918 40.1061 33.8664 39.7731 33.9174 39.4044C34.0092 38.7397 33.8257 38.0696 33.4064 37.539C33.1737 37.2446 33.0482 36.931 33.0482 36.6058C33.0482 36.2805 33.1737 35.967 33.4064 35.6725C33.8257 35.1419 34.0093 34.4718 33.9174 33.8072C33.8664 33.4384 33.918 33.1055 34.0842 32.8238C34.2505 32.5422 34.5194 32.332 34.8715 32.1908C35.506 31.9363 36.0075 31.4458 36.2677 30.8252C36.4121 30.4809 36.627 30.2178 36.915 30.0553C37.2029 29.8927 37.5433 29.8422 37.9204 29.8921C38.6 29.9819 39.2851 29.8024 39.8276 29.3923C40.1287 29.1647 40.4492 29.042 40.7818 29.042C41.1143 29.042 41.4349 29.1647 41.736 29.3923C42.2785 29.8024 42.9636 29.9819 43.6432 29.8921C44.0203 29.8422 44.3607 29.8927 44.6486 30.0553C44.9366 30.2178 45.1515 30.4809 45.2959 30.8252C45.5561 31.4458 46.0576 31.9363 46.6921 32.1908C47.0442 32.332 47.3131 32.5422 47.4794 32.8238C47.6456 33.1055 47.6972 33.4384 47.6462 33.8072C47.5544 34.4718 47.7379 35.1419 48.1572 35.6725C48.3899 35.9669 48.5154 36.2805 48.5154 36.6058C48.5154 36.931 48.39 37.2446 48.1572 37.539Z" fill="#FDA800"/>
<path d="M46.4747 36.6058C46.4747 39.6809 43.926 42.1737 40.7819 42.1737C37.6378 42.1737 35.0891 39.6809 35.0891 36.6058C35.0891 33.5308 37.6379 31.038 40.7819 31.038C43.9261 31.038 46.4747 33.5308 46.4747 36.6058Z" fill="#E27500"/>
<path d="M46.4747 36.6058C46.4747 39.6809 43.9259 42.1737 40.7818 42.1737C40.5071 42.1737 40.237 42.1546 39.9727 42.1178C38.5466 40.8811 37.6191 38.873 37.6191 36.6058C37.6191 34.3387 38.5466 32.3306 39.9727 31.0939C40.237 31.057 40.5072 31.038 40.7818 31.038C43.926 31.038 46.4747 33.5308 46.4747 36.6058Z" fill="#F57E00"/>
<path d="M47.3439 33.0109L41.0864 39.1311C40.937 39.2772 40.7411 39.3504 40.5453 39.3504C40.3494 39.3504 40.1535 39.2773 40.0041 39.1311L37.0243 36.2167C36.7255 35.9244 36.7255 35.4505 37.0243 35.1582C37.3232 34.8659 37.8078 34.8659 38.1066 35.1582L40.5453 37.5434L46.2617 31.9525C46.5606 31.6601 47.0452 31.6601 47.3439 31.9525C47.6428 32.2447 47.6428 32.7186 47.3439 33.0109Z" fill="#F5DC90"/>
<path d="M47.3441 33.0109L43.4351 36.834C43.1362 37.1264 42.6516 37.1264 42.3528 36.834C42.0539 36.5417 42.0539 36.0678 42.3528 35.7756L46.2391 31.9747C46.5354 31.6849 47.0221 31.6554 47.3272 31.9363C47.6428 32.227 47.6485 32.7132 47.3441 33.0109Z" fill="#FFF5F5"/>
</svg>
