<svg width="50" height="50" viewBox="0 0 50 50" fill="none" xmlns="http://www.w3.org/2000/svg">
<g clip-path="url(#clip0)">
<path d="M50 25C50 28.698 49.197 32.2083 47.7562 35.3664C45.293 40.7654 40.9653 45.1336 35.5968 47.6501C34.6245 48.1052 33.6174 48.5001 32.5806 48.8285C31.4144 49.2012 30.2113 49.4877 28.9764 49.6845C28.9715 49.6857 28.9654 49.6868 28.96 49.6868C28.3543 49.7837 27.7428 49.8581 27.1236 49.9104C26.9917 49.9214 26.8593 49.9317 26.7265 49.9409C26.5396 49.9531 26.3519 49.9641 26.1631 49.9725C25.7774 49.9908 25.3899 50 25 50C24.5998 50 24.2031 49.9908 23.8083 49.9714C23.6298 49.9634 23.4509 49.9531 23.2723 49.9397C23.1388 49.9306 23.0061 49.9214 22.8733 49.9104C22.2397 49.8573 21.6122 49.7795 20.993 49.6796C20.697 49.6315 20.4021 49.5796 20.1103 49.5213C18.8438 49.2702 17.6132 48.9246 16.4246 48.4898C15.7356 48.2388 15.0612 47.958 14.402 47.649C14.1777 47.5437 13.9542 47.4346 13.7325 47.3213C13.1634 47.0337 12.6072 46.7243 12.0644 46.3947C9.34486 44.7479 6.96526 42.5968 5.05295 40.0715C3.90511 38.5551 2.92664 36.9041 2.145 35.1448C0.766373 32.045 0 28.6121 0 25C0 11.1927 11.1927 0 25 0C38.8073 0 50 11.1927 50 25Z" fill="#009688"/>
<path d="M20.1103 32.4428V49.5212C18.8439 49.2702 17.6132 48.9246 16.4246 48.4897C15.7356 48.2387 15.0612 47.958 14.402 47.649C14.1777 47.5437 13.9542 47.4346 13.7325 47.3213C13.1634 47.0337 12.6072 46.7243 12.0644 46.3947C9.34488 44.7479 6.96527 42.5968 5.05296 40.0715C3.90512 38.5551 2.92665 36.9041 2.14502 35.1448V32.4428C2.14502 29.3083 4.27362 26.6704 7.1644 25.898C7.27045 25.8694 7.3765 25.8427 7.48483 25.8205C7.77132 25.7572 8.06619 25.7141 8.36641 25.6897C8.54913 25.6756 8.73376 25.6672 8.9203 25.6672H13.3335C13.8264 25.6672 14.307 25.7194 14.7705 25.8205C14.7968 25.8255 14.8235 25.8316 14.8499 25.8377C14.9277 25.8552 15.0063 25.8743 15.0826 25.8949C15.0849 25.8961 15.0868 25.8961 15.0887 25.8968C15.852 26.1009 16.5611 26.4347 17.1929 26.8734C18.956 28.0968 20.1103 30.1346 20.1103 32.4428Z" fill="#2BA1CF"/>
<path d="M20.1104 32.4428V49.5212C18.8439 49.2702 17.6133 48.9246 16.4246 48.4897C15.7357 48.2387 15.0612 47.958 14.402 47.649C14.1777 47.5437 13.9542 47.4346 13.7326 47.3213C13.1634 47.0337 12.6072 46.7243 12.0644 46.3947C9.34489 44.7479 6.96529 42.5968 5.05298 40.0715V32.4428C5.05298 29.3083 7.18158 26.6704 10.0724 25.898C10.1788 25.8694 10.2848 25.8427 10.3928 25.8205C10.6797 25.7572 10.9745 25.7141 11.2744 25.6897C11.4571 25.6756 11.6417 25.6672 11.8286 25.6672H13.3335C13.8264 25.6672 14.3071 25.7194 14.7705 25.8205C14.7969 25.8255 14.8236 25.8316 14.8499 25.8377C14.9277 25.8552 15.0063 25.8743 15.0826 25.8949C15.0849 25.8961 15.0868 25.8961 15.0887 25.8968C15.852 26.1009 16.5612 26.4347 17.1929 26.8734C18.956 28.0968 20.1104 30.1346 20.1104 32.4428Z" fill="#66BAED"/>
<path d="M15.1054 25.8202L15.0894 25.8969L13.0622 35.3249C12.8677 36.2309 12.0704 36.8878 11.1442 36.8885C11.1385 36.8885 11.1331 36.8885 11.1278 36.8885C11.1217 36.8885 11.116 36.8885 11.1099 36.8885C10.1833 36.8878 9.38638 36.2309 9.19183 35.3249L7.1647 25.8976L7.14868 25.8202H15.1054Z" fill="#F2F0EC"/>
<path d="M11.127 28.4412L8.07642 30.1365L7.14868 25.8202L9.0442 24.704" fill="#D8D5D0"/>
<path d="M11.1271 28.4412L14.1777 30.1365L15.1054 25.8202L13.2099 24.704" fill="#D8D5D0"/>
<path d="M2.01904 24.0341V13.8153C2.01904 12.7769 2.19223 11.7596 2.53403 10.7914C3.8131 7.15216 7.26654 4.70618 11.1274 4.70618C11.6058 4.70618 12.083 4.74318 12.5468 4.81642C14.6678 5.14792 16.6141 6.23053 18.0251 7.86513C19.4511 9.51727 20.2365 11.6302 20.2365 13.8153V24.0341" fill="#CC7A3B"/>
<path d="M5.76598 14.2143C5.76598 17.8288 7.88275 22.0104 9.04509 24.0341H2.0188V13.8153C2.0188 12.7773 2.19237 11.76 2.53378 10.7914C3.80522 7.17317 7.22701 4.73444 11.0612 4.70697C8.26079 4.77678 5.76598 9.26973 5.76598 14.2143Z" fill="#A35418"/>
<path d="M13.5452 23.0572V26.0243C13.5452 27.1103 12.8292 28.0285 11.8427 28.3333C11.6169 28.4035 11.3762 28.4413 11.1274 28.4413C9.7923 28.4413 8.71045 27.3594 8.71045 26.0243V23.0572H13.5452Z" fill="#EAB599"/>
<path d="M13.5452 25.8362V26.0242C13.5452 27.1103 12.8292 28.0285 11.8427 28.3333C10.9527 28.0598 10.2836 27.2858 10.16 26.339C10.3214 26.3489 10.4839 26.3538 10.6468 26.3538C11.1042 26.3538 11.5528 26.3176 11.9892 26.2459C12.5274 26.1593 13.0478 26.0208 13.5452 25.8362Z" fill="#F6CAAE"/>
<path d="M4.49638 18.195C4.49638 19.3142 3.67889 20.2423 2.60811 20.4144C2.49138 20.4334 2.37083 20.4433 2.248 20.4433C1.00632 20.4433 0 19.437 0 18.195C0 16.9533 1.00632 15.947 2.248 15.947C2.37083 15.947 2.49138 15.9569 2.60811 15.976C3.67889 16.148 4.49638 17.0757 4.49638 18.195Z" fill="#F6CAAE"/>
<path d="M4.4964 18.195C4.4964 19.3142 3.67891 20.2423 2.60812 20.4144C2.41396 19.7075 2.30981 18.9632 2.30981 18.195C2.30981 17.4271 2.41396 16.6828 2.60812 15.976C3.67891 16.148 4.4964 17.0757 4.4964 18.195Z" fill="#EAB599"/>
<path d="M3.05171 18.195C3.05171 18.639 2.69199 18.9987 2.24796 18.9987C1.80431 18.9987 1.44458 18.639 1.44458 18.195C1.44458 17.7513 1.80431 17.3916 2.24796 17.3916C2.69199 17.3916 3.05171 17.7513 3.05171 18.195Z" fill="#EAB599"/>
<path d="M16.9003 15.3244V23.0522C15.7059 24.1924 14.1743 24.9821 12.4703 25.2567C12.457 25.259 12.4425 25.2613 12.4291 25.2636C12.0057 25.3311 11.5712 25.3647 11.1275 25.3647C6.50832 25.3647 2.76343 21.6198 2.76343 17.0006V13.8153C2.76343 13.4075 2.79242 13.0062 2.84888 12.6141C4.839 14.0453 7.6924 13.9038 9.51048 12.1857C10.1124 11.6169 10.5309 10.9398 10.7674 10.2215C10.899 11.4792 11.4743 12.7033 12.494 13.6673C13.7078 14.8132 15.3115 15.366 16.9003 15.3244Z" fill="#EAB599"/>
<path d="M16.9003 15.3244V23.0522C15.7059 24.1924 14.1743 24.9821 12.4702 25.2567C12.4569 25.259 12.4424 25.2613 12.429 25.2636C8.42819 24.6384 5.36804 21.1762 5.36804 17.0006V13.8153C5.36804 13.7306 5.36957 13.6463 5.37262 13.5624C6.84738 13.7135 8.37936 13.2549 9.51042 12.1853C10.1124 11.6169 10.5309 10.9394 10.7674 10.2215C10.899 11.4792 11.4742 12.7033 12.4939 13.6673C13.7077 14.8132 15.3114 15.366 16.9003 15.3244Z" fill="#F6CAAE"/>
<path d="M15.6201 16.2941C15.6201 15.5266 14.9979 14.9048 14.2307 14.9048C13.4636 14.9048 12.8414 15.5266 12.8414 16.2941" fill="#EAB599"/>
<path d="M9.41508 16.2941C9.41508 15.5266 8.79291 14.9048 8.02577 14.9048C7.25864 14.9048 6.63684 15.5266 6.63684 16.2941" fill="#EAB599"/>
<path d="M8.97484 16.8854C8.97484 17.4095 8.54988 17.8345 8.02574 17.8345C7.5016 17.8345 7.07703 17.4095 7.07703 16.8854C7.07703 16.3612 7.5016 15.9366 8.02574 15.9366C8.54988 15.9366 8.97484 16.3612 8.97484 16.8854Z" fill="#3D4159"/>
<path d="M15.1794 16.8854C15.1794 17.4095 14.7548 17.8345 14.2307 17.8345C13.7066 17.8345 13.282 17.4095 13.282 16.8854C13.282 16.3612 13.7066 15.9366 14.2307 15.9366C14.7548 15.9366 15.1794 16.3612 15.1794 16.8854Z" fill="#3D4159"/>
<path d="M12.0774 19.2745H10.1796C9.95337 19.2745 9.77026 19.091 9.77026 18.8652C9.77026 18.6394 9.95337 18.4559 10.1796 18.4559H12.0774C12.3032 18.4559 12.4863 18.6394 12.4863 18.8652C12.4863 19.091 12.3032 19.2745 12.0774 19.2745Z" fill="#EAB599"/>
<path d="M11.1283 21.8644C10.4279 21.8644 9.72755 21.6889 9.08897 21.3376C8.90892 21.2388 8.8433 21.0125 8.94211 20.8325C9.04129 20.6524 9.2675 20.5868 9.44755 20.6856C10.5 21.2643 11.7566 21.2643 12.8091 20.6856C12.9891 20.5864 13.2153 20.6524 13.3145 20.8325C13.4133 21.0125 13.3477 21.2388 13.1677 21.3376C12.5291 21.6889 11.8287 21.8644 11.1283 21.8644Z" fill="#EAB599"/>
<path d="M8.78143 16.7179C8.78143 16.9426 8.59909 17.1246 8.37479 17.1246C8.1501 17.1246 7.96814 16.9426 7.96814 16.7179C7.96814 16.4932 8.1501 16.3113 8.37479 16.3113C8.59909 16.3113 8.78143 16.4932 8.78143 16.7179Z" fill="white"/>
<path d="M15.0326 16.7179C15.0326 16.9426 14.8507 17.1246 14.6264 17.1246C14.4017 17.1246 14.2197 16.9426 14.2197 16.7179C14.2197 16.4932 14.4017 16.3113 14.6264 16.3113C14.8507 16.3113 15.0326 16.4932 15.0326 16.7179Z" fill="white"/>
<path d="M16.8213 19.1967C16.8213 19.772 16.3547 20.2385 15.7791 20.2385C15.2038 20.2385 14.7373 19.772 14.7373 19.1967C14.7373 18.6211 15.2038 18.1545 15.7791 18.1545C16.3547 18.1545 16.8213 18.6211 16.8213 19.1967Z" fill="#EAB599"/>
<path d="M7.5184 19.1967C7.5184 19.772 7.05225 20.2385 6.47661 20.2385C5.90135 20.2385 5.43481 19.772 5.43481 19.1967C5.43481 18.6211 5.90135 18.1545 6.47661 18.1545C7.05225 18.1545 7.5184 18.6211 7.5184 19.1967Z" fill="#EAB599"/>
<path d="M47.7561 32.2369V35.3665C45.293 40.7654 40.9652 45.1336 35.5968 47.6502C34.6244 48.1053 33.6173 48.5001 32.5805 48.8285C31.4143 49.2012 30.2112 49.4877 28.9764 49.6845C28.9714 49.6857 28.9653 49.6868 28.96 49.6868V32.2369C28.96 28.5175 31.8244 25.4662 35.4694 25.1724C35.6612 25.156 35.8539 25.1492 36.0488 25.1492H40.6654C41.2112 25.1492 41.7426 25.2091 42.253 25.3266C45.404 26.0468 47.7561 28.8685 47.7561 32.2369Z" fill="#BFD5DE"/>
<path d="M47.7562 32.2369V35.3665C45.293 40.7654 40.9653 45.1336 35.5968 47.6502C34.6245 48.1053 33.6174 48.5001 32.5806 48.8285V32.2369C32.5806 28.3226 35.7552 25.1492 39.6706 25.1492H40.6662C44.5827 25.1492 47.7562 28.3226 47.7562 32.2369Z" fill="#DDE8ED"/>
<path d="M31.4194 17.3305C31.4194 18.5016 30.5641 19.4725 29.4441 19.6525C29.3217 19.6724 29.1958 19.6827 29.0672 19.6827C27.7679 19.6827 26.7151 18.6298 26.7151 17.3305C26.7151 16.0312 27.7679 14.9784 29.0672 14.9784C29.1958 14.9784 29.3217 14.9887 29.4441 15.0085C30.5641 15.189 31.4194 16.1598 31.4194 17.3305Z" fill="#D3A489"/>
<path d="M40.2611 27.7062L38.358 30.7587L36.4548 27.7062" fill="#F74F4F"/>
<path d="M40.9184 39.3814L38.3579 42.6125L35.7971 39.3814L38.3583 29.9645L40.9184 39.3814Z" fill="#F74F4F"/>
<path d="M31.4194 17.3306C31.4194 18.5017 30.5641 19.4725 29.4441 19.6526C29.2408 18.9129 29.1321 18.1343 29.1321 17.3306C29.1321 16.5272 29.2408 15.7486 29.4441 15.0085C30.5641 15.189 31.4194 16.1598 31.4194 17.3306Z" fill="#BF8E75"/>
<path d="M29.9081 17.3306C29.9081 17.7948 29.5316 18.1713 29.0673 18.1713C28.6031 18.1713 28.2269 17.7948 28.2269 17.3306C28.2269 16.8663 28.6031 16.4902 29.0673 16.4902C29.5316 16.4902 29.9081 16.8663 29.9081 17.3306Z" fill="#BF8E75"/>
<path d="M38.3572 28.0506L35.1658 29.8244L34.1949 25.3082L36.1778 24.1401" fill="#BFD5DE"/>
<path d="M38.3572 28.0506L41.5489 29.8244L42.5198 25.3082L40.5365 24.1401" fill="#BFD5DE"/>
<path d="M45.2957 17.3305C45.2957 18.5016 46.1509 19.4725 47.2709 19.6525C47.3934 19.6724 47.5192 19.6827 47.6478 19.6827C48.9471 19.6827 49.9999 18.6298 49.9999 17.3305C49.9999 16.0312 48.9471 14.9784 47.6478 14.9784C47.5192 14.9784 47.3934 14.9887 47.2709 15.0085C46.1509 15.189 45.2957 16.1598 45.2957 17.3305Z" fill="#D3A489"/>
<path d="M45.2958 17.3306C45.2958 18.5017 46.151 19.4725 47.271 19.6526C47.4747 18.9129 47.5831 18.1343 47.5831 17.3306C47.5831 16.5272 47.4747 15.7486 47.271 15.0085C46.151 15.189 45.2958 16.1598 45.2958 17.3306Z" fill="#BF8E75"/>
<path d="M48.4886 17.3306C48.4886 17.7948 48.1121 18.1713 47.6479 18.1713C47.1836 18.1713 46.8071 17.7948 46.8071 17.3306C46.8071 16.8663 47.1836 16.4902 47.6479 16.4902C48.1121 16.4902 48.4886 16.8663 48.4886 17.3306Z" fill="#BF8E75"/>
<path d="M47.1093 16.0805C47.1093 20.4354 43.9278 24.0483 39.7622 24.7189C39.3056 24.794 38.8364 24.8318 38.3576 24.8318C33.524 24.8318 29.6063 20.9141 29.6063 16.0805C29.6063 13.7936 30.4005 10.3604 31.8368 8.80129C33.4359 7.06522 35.8109 7.32882 38.3576 7.32882C38.8364 7.32882 39.3052 7.36696 39.7622 7.44211C43.9278 8.11274 47.1093 11.7253 47.1093 16.0805Z" fill="#BF8E75"/>
<path d="M40.8872 22.4178V25.5219C40.8872 26.6583 40.138 27.6188 39.1057 27.9377C38.8696 28.011 38.6178 28.0506 38.3573 28.0506C36.9607 28.0506 35.8285 26.9184 35.8285 25.5219V22.4178H40.8872Z" fill="#BF8E75"/>
<path d="M40.887 25.325V25.5219C40.887 26.6582 40.1378 27.6188 39.1056 27.9377C38.1744 27.6516 37.4744 26.8417 37.3451 25.8511C37.5141 25.8614 37.6838 25.8667 37.8547 25.8667C38.3331 25.8667 38.8023 25.8286 39.2593 25.7538C39.8224 25.663 40.3663 25.5184 40.887 25.325Z" fill="#D3A489"/>
<path d="M47.1092 16.0805C47.1092 20.4353 43.9278 24.0482 39.7621 24.7189C35.5969 24.0482 32.4154 20.4353 32.4154 16.0805C32.4154 13.3987 33.6216 10.9985 35.5217 9.39293C36.7066 8.39119 38.1619 7.69958 39.7621 7.44171C43.6455 8.06694 46.6747 11.2503 47.0661 15.2077C47.0947 15.4949 47.1092 15.7864 47.1092 16.0805Z" fill="#D3A489"/>
<path d="M38.358 20.3907C37.6248 20.3907 36.8924 20.2072 36.2244 19.8399C36.0356 19.7365 35.9669 19.4996 36.0707 19.3112C36.1741 19.1227 36.411 19.054 36.5994 19.1578C37.7003 19.7628 39.0153 19.7628 40.1166 19.1578C40.3046 19.054 40.5415 19.1227 40.6449 19.3112C40.7487 19.4996 40.68 19.7365 40.4916 19.8399C39.8236 20.2072 39.0904 20.3907 38.358 20.3907Z" fill="#BF8E75"/>
<path d="M36.4941 15.5712C36.4941 16.1194 36.0497 16.5638 35.5011 16.5638C34.953 16.5638 34.5085 16.1194 34.5085 15.5712C34.5085 15.0227 34.953 14.5782 35.5011 14.5782C36.0497 14.5782 36.4941 15.0227 36.4941 15.5712Z" fill="#3D4159"/>
<path d="M42.207 15.5712C42.207 16.1194 41.7626 16.5638 41.2144 16.5638C40.6658 16.5638 40.2214 16.1194 40.2214 15.5712C40.2214 15.0227 40.6658 14.5782 41.2144 14.5782C41.7626 14.5782 42.207 15.0227 42.207 15.5712Z" fill="#3D4159"/>
<path d="M36.2915 15.3957C36.2915 15.6307 36.1011 15.8215 35.8661 15.8215C35.6311 15.8215 35.4408 15.6307 35.4408 15.3957C35.4408 15.1611 35.6311 14.9704 35.8661 14.9704C36.1011 14.9704 36.2915 15.1611 36.2915 15.3957Z" fill="white"/>
<path d="M42.0532 15.3957C42.0532 15.6307 41.8628 15.8215 41.6279 15.8215C41.3929 15.8215 41.2025 15.6307 41.2025 15.3957C41.2025 15.1611 41.3929 14.9704 41.6279 14.9704C41.8628 14.9704 42.0532 15.1611 42.0532 15.3957Z" fill="white"/>
<path d="M39.3505 18.0706H37.3649C37.1284 18.0706 36.9365 17.8788 36.9365 17.6422C36.9365 17.4057 37.1284 17.2142 37.3649 17.2142H39.3505C39.587 17.2142 39.7789 17.4057 39.7789 17.6422C39.7785 17.8788 39.587 18.0706 39.3505 18.0706Z" fill="#BF8E75"/>
<path d="M41.2391 32.0045H45.0542V33.1722H41.2391V32.0045Z" fill="#BFD5DE"/>
<path d="M37.8456 4.82902C40.4968 5.01823 42.6254 7.1598 42.7601 9.85564L42.7852 10.3619H44.3103L45.1317 15.8237L47.121 15.208L46.854 9.85603C46.7128 7.02399 44.3706 4.8046 41.5363 4.81528L37.8456 4.82902Z" fill="#2A2F4F"/>
<path d="M46.6854 2.71643C48.7965 4.82748 48.7965 8.25041 46.6854 10.3615C44.5744 12.4725 41.1515 12.4725 39.0404 10.3615L46.6854 2.71643Z" fill="#3D4159"/>
<path d="M39.0403 10.3615H32.4058L31.5841 15.8238L29.5947 15.2081L29.8614 9.85566C30.0025 7.02439 32.3447 4.80424 35.1794 4.81492L44.7616 4.85116L46.0284 7.1312" fill="#3D4159"/>
<path d="M38.8699 4.82902C36.2187 5.01823 34.0901 7.1598 33.9554 9.85564L33.9303 10.3619H32.4055L31.5838 15.8237L29.5945 15.208L29.8615 9.85603C30.0027 7.02399 32.3449 4.8046 35.1792 4.81528L38.8699 4.82902Z" fill="#2A2F4F"/>
<path d="M35.5968 45.7756V47.6501C32.3795 49.1573 28.7887 50 25 50C21.2112 50 17.6193 49.1573 14.402 47.649V45.7756C14.402 42.0765 16.9132 38.9652 20.3243 38.0531C20.449 38.0195 20.5745 37.9886 20.702 37.9612C21.0407 37.8875 21.3886 37.8368 21.7418 37.8082C21.9581 37.7906 22.1756 37.7815 22.3961 37.7815H27.602C28.1845 37.7815 28.751 37.8429 29.298 37.9612C29.3297 37.9673 29.3613 37.9745 29.3918 37.9818C29.4838 38.0031 29.5753 38.0256 29.6661 38.05C29.6695 38.0508 29.6703 38.0508 29.6734 38.052C30.5736 38.2927 31.4113 38.6867 32.1552 39.204C34.2357 40.6471 35.5968 43.0519 35.5968 45.7756Z" fill="#3D4159"/>
<path d="M29.6928 37.9612L29.6733 38.052L27.1236 49.9103C26.9916 49.9214 26.8592 49.9317 26.7265 49.9409C26.5395 49.9531 26.3519 49.9641 26.163 49.9725C25.7774 49.9908 25.3898 50 24.9999 50C24.5998 50 24.203 49.9908 23.8082 49.9714C23.6297 49.9634 23.4508 49.9531 23.2722 49.9397C23.1387 49.9306 23.006 49.9214 22.8732 49.9103L20.3242 38.0531L20.3052 37.9612H29.6928Z" fill="#66BAED"/>
<path d="M27.1454 40.6662L24.9993 44.1078L22.8535 40.6662" fill="#3D4159"/>
<path d="M26.7265 49.9409C26.5396 49.9531 26.3519 49.9642 26.1631 49.9726C25.7775 49.9909 25.3899 50 25 50C24.5999 50 24.2031 49.9909 23.8083 49.9714C23.6298 49.9634 23.4509 49.9531 23.2723 49.9398L25 43.2122L26.7265 49.9409Z" fill="#3D4159"/>
<path d="M24.9989 41.0542L21.3997 43.0542L20.3049 37.962L22.5411 36.6448" fill="#2BA1CF"/>
<path d="M24.9988 41.0542L28.5976 43.0542L29.6924 37.962L27.4562 36.6448" fill="#2BA1CF"/>
<path d="M29.8286 44.8337H30.9704L28.9764 49.6845C28.054 49.8325 27.1152 49.9294 26.1631 49.9725L29.6661 38.0501L29.6928 37.9612L32.1552 38.7653L29.8286 44.8337Z" fill="#2A2F4F"/>
<path d="M23.8083 49.9714C22.855 49.9275 21.9155 49.8287 20.9931 49.6796L19.001 44.8337H20.1428L17.8154 38.7653L20.2786 37.9612L20.3053 38.0501L23.8083 49.9714Z" fill="#2A2F4F"/>
<path d="M27.8515 34.7023V38.2023C27.8515 39.484 27.0065 40.567 25.8427 40.9267C25.576 41.0095 25.2922 41.0541 24.9985 41.0541C23.4234 41.0541 22.147 39.7773 22.147 38.2023V34.7023H27.8515Z" fill="#EAB599"/>
<path d="M27.8515 37.9807V38.2027C27.8515 39.484 27.0066 40.567 25.8427 40.9271C24.7925 40.604 24.0029 39.6912 23.8572 38.5738C24.0479 38.5857 24.2394 38.5914 24.4317 38.5914C24.9715 38.5914 25.5005 38.5487 26.0155 38.4644C26.6507 38.3621 27.2641 38.1985 27.8515 37.9807Z" fill="#F6CAAE"/>
<path d="M17.1752 28.9657C17.1752 30.286 16.2105 31.3808 14.9474 31.5841C14.8093 31.6063 14.6674 31.6181 14.5229 31.6181C13.0576 31.6181 11.8701 30.431 11.8701 28.9657C11.8701 27.5005 13.0573 26.313 14.5229 26.313C14.6674 26.313 14.8093 26.3248 14.9474 26.3473C16.2105 26.5506 17.1752 27.6455 17.1752 28.9657Z" fill="#F6CAAE"/>
<path d="M17.1753 28.9658C17.1753 30.286 16.2106 31.3808 14.9475 31.5842C14.7183 30.7499 14.5958 29.8717 14.5958 28.9658C14.5958 28.0594 14.7183 27.1816 14.9475 26.3474C16.2106 26.5507 17.1753 27.6455 17.1753 28.9658Z" fill="#EAB599"/>
<path d="M15.4709 28.9658C15.4709 29.4892 15.0463 29.9137 14.5229 29.9137C13.9991 29.9137 13.575 29.4892 13.575 28.9658C13.575 28.442 13.9991 28.0178 14.5229 28.0178C15.0463 28.0178 15.4709 28.442 15.4709 28.9658Z" fill="#EAB599"/>
<path d="M32.8228 28.9657C32.8228 30.286 33.7875 31.3808 35.0505 31.5841C35.1882 31.6063 35.3305 31.6181 35.4751 31.6181C36.9403 31.6181 38.1279 30.431 38.1279 28.9657C38.1279 27.5005 36.9407 26.313 35.4751 26.313C35.3305 26.313 35.1882 26.3248 35.0505 26.3473C33.7875 26.5506 32.8228 27.6455 32.8228 28.9657Z" fill="#F6CAAE"/>
<path d="M32.8228 28.9658C32.8228 30.286 33.7875 31.3808 35.0505 31.5842C35.2798 30.7499 35.4023 29.8717 35.4023 28.9658C35.4023 28.0594 35.2798 27.1816 35.0505 26.3474C33.7875 26.5507 32.8228 27.6455 32.8228 28.9658Z" fill="#EAB599"/>
<path d="M34.8678 23.7984V27.5562C34.8678 32.4673 31.2801 36.541 26.5827 37.2971C26.5671 37.2997 26.5503 37.3024 26.5346 37.3051C26.0349 37.3852 25.5222 37.4245 24.9988 37.4245C19.5488 37.4245 15.131 33.0063 15.131 27.5566V23.7984C15.131 22.6509 15.3267 21.5481 15.6883 20.5235C17.0379 16.6828 20.6974 13.9294 24.9988 13.9294H24.9996C25.5222 13.9294 26.0357 13.9698 26.5362 14.0488C31.2565 14.7862 34.8678 18.8709 34.8678 23.7984Z" fill="#EAB599"/>
<path d="M36.4231 28.9658C36.4231 29.4892 35.9989 29.9137 35.4752 29.9137C34.9518 29.9137 34.5272 29.4892 34.5272 28.9658C34.5272 28.442 34.9518 28.0178 35.4752 28.0178C35.9989 28.0178 36.4231 28.442 36.4231 28.9658Z" fill="#EAB599"/>
<path d="M34.8675 23.7984V27.5562C34.8675 32.4669 31.2801 36.541 26.5827 37.2971C26.5667 37.2997 26.5503 37.3024 26.5343 37.3051C21.8143 36.5673 18.2037 32.4829 18.2037 27.5562V23.7984C18.2037 18.8709 21.8151 14.7861 26.5362 14.0488C31.2565 14.7861 34.8675 18.8709 34.8675 23.7984Z" fill="#F6CAAE"/>
<path d="M22.8973 26.9814C22.8973 27.5997 22.396 28.101 21.7781 28.101C21.1597 28.101 20.6584 27.5997 20.6584 26.9814C20.6584 26.3634 21.1597 25.8621 21.7781 25.8621C22.396 25.8621 22.8973 26.3634 22.8973 26.9814Z" fill="#3D4159"/>
<path d="M29.3401 26.9814C29.3401 27.5997 28.8388 28.101 28.2204 28.101C27.6021 28.101 27.1008 27.5997 27.1008 26.9814C27.1008 26.3634 27.6021 25.8621 28.2204 25.8621C28.8388 25.8621 29.3401 26.3634 29.3401 26.9814Z" fill="#3D4159"/>
<path d="M22.6692 26.7841C22.6692 27.0489 22.4545 27.2637 22.1893 27.2637C21.9246 27.2637 21.7098 27.0489 21.7098 26.7841C21.7098 26.519 21.9246 26.3043 22.1893 26.3043C22.4545 26.3043 22.6692 26.519 22.6692 26.7841Z" fill="white"/>
<path d="M29.1664 26.7841C29.1664 27.0489 28.9517 27.2637 28.6869 27.2637C28.4218 27.2637 28.207 27.0489 28.207 26.7841C28.207 26.519 28.4218 26.3043 28.6869 26.3043C28.9517 26.3043 29.1664 26.519 29.1664 26.7841Z" fill="white"/>
<path d="M26.1189 29.3613H23.8797C23.613 29.3613 23.3967 29.145 23.3967 28.8784C23.3967 28.6114 23.613 28.3954 23.8797 28.3954H26.1189C26.3855 28.3954 26.6018 28.6114 26.6018 28.8784C26.6015 29.145 26.3852 29.3613 26.1189 29.3613Z" fill="#EAB599"/>
<path d="M24.9992 32.4166C24.173 32.4166 23.3463 32.2094 22.5933 31.7951C22.3808 31.6784 22.303 31.4114 22.4201 31.1993C22.5369 30.9868 22.8039 30.9094 23.0164 31.0257C24.2581 31.7085 25.7404 31.7085 26.9821 31.0257C27.1946 30.909 27.4616 30.9864 27.5784 31.1993C27.6955 31.4114 27.6177 31.6784 27.4052 31.7951C26.6518 32.2094 25.8255 32.4166 24.9992 32.4166Z" fill="#EAB599"/>
<path d="M34.8679 20.388V24.2374H33.0311V21.2227L19.7727 18.7591L16.9674 18.2377V24.2374H15.1306V20.3876C15.1306 15.9992 18.6874 12.4424 23.0751 12.4424H26.9234C27.0279 12.4424 27.1324 12.4443 27.2369 12.4496C31.4785 12.6129 34.8679 16.1041 34.8679 20.388Z" fill="#2A2F4F"/>
<path d="M34.8678 20.388V24.2374H33.0311V21.2227L19.7727 18.7592C20.5032 15.2504 23.5473 12.5919 27.2369 12.4496C31.4785 12.6129 34.8678 16.1041 34.8678 20.388Z" fill="#3D4159"/>
</g>
<defs>
<clipPath id="clip0">
<rect width="50" height="50" fill="white"/>
</clipPath>
</defs>
</svg>
