<svg width="50" height="50" viewBox="0 0 50 50" fill="none" xmlns="http://www.w3.org/2000/svg">
<g clip-path="url(#clip0)">
<path d="M6.13018 41.3999C2.31182 37.0102 0 31.2752 0 25.0004C0 11.2768 10.9722 0.16586 24.6947 0.00218784C38.6418 -0.164218 50 11.0916 50 25.0003C50 31.1563 47.775 36.7926 44.0853 41.149C43.6522 41.6602 42.8803 41.6946 42.3992 41.2283C37.8988 36.8655 31.7631 34.18 25 34.18C18.1222 34.18 11.893 36.9575 7.37295 41.4519C7.02363 41.7993 6.45352 41.7716 6.13018 41.3999Z" fill="#009688"/>
<path d="M45.9961 21.9727C45.9961 33.5685 36.5958 42.9688 25 42.9688C13.4042 42.9688 4.00391 33.5685 4.00391 21.9727C4.00391 10.3769 13.4042 0.976562 25 0.976562C36.5958 0.976562 45.9961 10.3769 45.9961 21.9727Z" fill="#009688"/>
<path d="M32.7533 6.44499H17.2467C16.7276 6.44499 16.3529 5.94821 16.4955 5.44909L17.8903 0.567057C18.0296 0.0796542 18.589 -0.148178 19.0291 0.103385L24.6123 3.29381C24.8524 3.43102 25.1473 3.43102 25.3875 3.29381L30.9707 0.103385C31.4108 -0.14808 31.9702 0.0796542 32.1095 0.567057L33.5043 5.44909C33.6472 5.94811 33.2724 6.44499 32.7533 6.44499Z" fill="#C83C50"/>
<path d="M34.375 8.78906V20.5078C34.375 21.0472 33.9378 21.4844 33.3984 21.4844H16.6016C16.0622 21.4844 15.625 21.0472 15.625 20.5078V8.78906C15.625 8.24971 16.0622 7.8125 16.6016 7.8125H33.3984C33.9378 7.8125 34.375 8.24971 34.375 8.78906Z" fill="#51489A"/>
<path d="M18.5547 21.4844H16.6016C16.0622 21.4844 15.625 21.0472 15.625 20.5078V8.78906C15.625 8.24971 16.0622 7.8125 16.6016 7.8125H18.5547C18.0153 7.8125 17.5781 8.24971 17.5781 8.78906V20.5078C17.5781 21.0472 18.0153 21.4844 18.5547 21.4844Z" fill="#453D83"/>
<path d="M22.4609 5.85937V9.76562C22.4609 10.305 22.0237 10.7422 21.4844 10.7422H15.332C14.7927 10.7422 14.3555 10.305 14.3555 9.76562V5.85937C14.3555 5.32002 14.7927 4.88281 15.332 4.88281H21.4844C22.0237 4.88281 22.4609 5.32002 22.4609 5.85937Z" fill="#51489A"/>
<path d="M35.6445 5.85937V9.76562C35.6445 10.305 35.2073 10.7422 34.668 10.7422H21.4844C19.8663 10.7422 18.5547 9.43057 18.5547 7.8125C18.5547 6.19443 19.8663 4.88281 21.4844 4.88281H34.668C35.2073 4.88281 35.6445 5.32002 35.6445 5.85937Z" fill="#6A61B4"/>
<path d="M26.4648 3.41797V20.9961C26.4648 21.8051 25.809 22.4609 25 22.4609C24.191 22.4609 23.5352 21.8051 23.5352 20.9961V3.41797C23.5352 2.60898 24.191 1.95312 25 1.95312C25.809 1.95312 26.4648 2.60898 26.4648 3.41797Z" fill="#F44545"/>
<path d="M26.4648 3.41797V8.30078C26.4648 9.10977 25.809 9.76562 25 9.76562C24.191 9.76562 23.5352 9.10977 23.5352 8.30078V3.41797C23.5352 2.60898 24.191 1.95312 25 1.95312C25.809 1.95312 26.4648 2.60898 26.4648 3.41797Z" fill="#FB5858"/>
<path d="M39.2578 17.5781V30.4688C39.2578 31.0081 38.8206 31.4453 38.2812 31.4453H11.7188C11.1794 31.4453 10.7422 31.0081 10.7422 30.4688V17.5781C10.7422 17.0388 11.1794 16.6016 11.7188 16.6016H38.2812C38.8206 16.6016 39.2578 17.0388 39.2578 17.5781Z" fill="#FFB52D"/>
<path d="M13.6719 31.4453H11.7188C11.1794 31.4453 10.7422 31.0081 10.7422 30.4688V17.5781C10.7422 17.0388 11.1794 16.6016 11.7188 16.6016H13.6719C13.1325 16.6016 12.6953 17.0388 12.6953 17.5781V30.4688C12.6953 31.0081 13.1325 31.4453 13.6719 31.4453Z" fill="#F29500"/>
<path d="M20.5078 16.6016V20.5078C20.5078 21.0472 20.0706 21.4844 19.5312 21.4844H10.7422C10.2028 21.4844 9.76562 21.0472 9.76562 20.5078V16.6016C9.76562 16.0622 10.2028 15.625 10.7422 15.625H19.5312C20.0706 15.625 20.5078 16.0622 20.5078 16.6016Z" fill="#FFC14F"/>
<path d="M40.2344 16.6016V20.5078C40.2344 21.0472 39.7972 21.4844 39.2578 21.4844H17.5781C15.9601 21.4844 14.6484 20.1728 14.6484 18.5547C14.6484 16.9366 15.9601 15.625 17.5781 15.625H39.2578C39.7972 15.625 40.2344 16.0622 40.2344 16.6016Z" fill="#FFF36C"/>
<path d="M17.3167 24.9413L15.9848 25.1244L17.3167 25.3075C17.7242 25.3636 18.1 25.7393 18.156 26.1469C18.1911 26.4019 18.0128 26.5803 17.7577 26.5452C17.5026 26.5101 17.3243 26.6885 17.3594 26.9435C17.3944 27.1986 17.2161 27.3769 16.961 27.3419C16.5535 27.2858 16.1777 26.91 16.1217 26.5025L15.9386 25.1707L15.7554 26.5025C15.6994 26.91 15.3236 27.2858 14.9161 27.3419C14.661 27.3769 14.4827 27.1986 14.5178 26.9435C14.5528 26.6885 14.3745 26.5101 14.1194 26.5452C13.8643 26.5803 13.686 26.4019 13.7211 26.1469C13.7771 25.7393 14.1529 25.3636 14.5604 25.3075L15.8924 25.1244L14.5604 24.9413C14.1529 24.8852 13.7771 24.5095 13.7211 24.1019C13.686 23.8469 13.8643 23.6685 14.1194 23.7036C14.3745 23.7387 14.5528 23.5603 14.5178 23.3053C14.4827 23.0502 14.661 22.8719 14.9161 22.9069C15.3236 22.963 15.6994 23.3388 15.7554 23.7463L15.9386 25.0782L16.1217 23.7463C16.1777 23.3388 16.5535 22.963 16.961 22.9069C17.2161 22.8719 17.3944 23.0502 17.3594 23.3053C17.3243 23.5603 17.5026 23.7387 17.7577 23.7036C18.0128 23.6685 18.1911 23.8469 18.156 24.1019C18.1001 24.5096 17.7242 24.8853 17.3167 24.9413ZM24.406 28.4965C24.4411 28.2414 24.2628 28.0631 24.0077 28.0981C23.7526 28.1332 23.5743 27.9549 23.6094 27.6998C23.6444 27.4447 23.4661 27.2664 23.211 27.3015C22.8035 27.3575 22.4277 27.7333 22.3717 28.1408L22.1886 29.4727L22.0054 28.1408C21.9494 27.7333 21.5736 27.3575 21.1661 27.3015C20.911 27.2664 20.7327 27.4447 20.7678 27.6998C20.8028 27.9549 20.6245 28.1332 20.3694 28.0981C20.1143 28.0631 19.936 28.2414 19.9711 28.4965C20.0271 28.904 20.4029 29.2798 20.8104 29.3358L22.1424 29.5189L20.8104 29.702C20.4029 29.7581 20.027 30.1339 19.9711 30.5414C19.936 30.7965 20.1143 30.9748 20.3694 30.9397C20.6245 30.9047 20.8028 31.083 20.7678 31.3381C20.7327 31.5931 20.911 31.7715 21.1661 31.7364C21.5736 31.6804 21.9494 31.3046 22.0054 30.8971L22.1886 29.5652L22.3717 30.8971C22.4277 31.3046 22.8035 31.6804 23.211 31.7364C23.4661 31.7715 23.6444 31.5931 23.6094 31.3381C23.5743 31.083 23.7526 30.9047 24.0077 30.9397C24.2628 30.9748 24.4411 30.7965 24.406 30.5414C24.35 30.1339 23.9742 29.7581 23.5667 29.702L22.2348 29.5189L23.5667 29.3358C23.9742 29.2799 24.3501 28.9041 24.406 28.4965ZM32.9417 26.7724L31.6098 26.5893L32.9417 26.4062C33.3492 26.3502 33.7251 25.9744 33.781 25.5669C33.8161 25.3118 33.6378 25.1335 33.3827 25.1685C33.1276 25.2036 32.9493 25.0253 32.9844 24.7702C33.0194 24.5151 32.8411 24.3368 32.586 24.3719C32.1785 24.4279 31.8027 24.8037 31.7467 25.2112L31.5636 26.5432L31.3804 25.2112C31.3244 24.8037 30.9486 24.4279 30.5411 24.3719C30.286 24.3368 30.1077 24.5151 30.1428 24.7702C30.1778 25.0253 29.9995 25.2036 29.7444 25.1685C29.4893 25.1335 29.311 25.3118 29.3461 25.5669C29.4021 25.9744 29.7779 26.3502 30.1854 26.4062L31.5174 26.5893L30.1854 26.7724C29.7779 26.8285 29.402 27.2043 29.3461 27.6118C29.311 27.8669 29.4893 28.0452 29.7444 28.0101C29.9995 27.9751 30.1778 28.1534 30.1428 28.4085C30.1077 28.6636 30.286 28.8419 30.5411 28.8068C30.9486 28.7508 31.3244 28.375 31.3804 27.9675L31.5636 26.6356L31.7467 27.9675C31.8027 28.375 32.1785 28.7508 32.586 28.8068C32.8411 28.8419 33.0194 28.6636 32.9844 28.4085C32.9493 28.1534 33.1276 27.9751 33.3827 28.0101C33.6378 28.0452 33.8161 27.8669 33.781 27.6118C33.7251 27.2044 33.3492 26.8285 32.9417 26.7724Z" fill="#FFF5F5"/>
<path d="M16.5528 24.3952C16.9238 24.7662 16.9238 25.3678 16.5528 25.7387C16.1818 26.1097 15.5803 26.1097 15.2093 25.7387C14.8383 25.3678 14.8383 24.7662 15.2093 24.3952C15.5803 24.0242 16.1818 24.0242 16.5528 24.3952ZM21.4593 28.7897C21.0883 29.1607 21.0883 29.7623 21.4593 30.1333C21.8303 30.5043 22.4318 30.5043 22.8028 30.1333C23.1738 29.7623 23.1738 29.1607 22.8028 28.7897C22.4318 28.4187 21.8303 28.4187 21.4593 28.7897ZM30.8343 25.86C30.4633 26.231 30.4633 26.8326 30.8343 27.2036C31.2053 27.5746 31.8068 27.5746 32.1778 27.2036C32.5488 26.8326 32.5488 26.231 32.1778 25.86C31.8068 25.489 31.2053 25.489 30.8343 25.86Z" fill="#FFF04A"/>
<path d="M44.043 33.2031V41.1984C39.4574 46.584 32.6276 50 25 50C17.3724 50 10.5426 46.584 5.95703 41.1984V33.2031C5.95703 32.6638 6.39424 32.2266 6.93359 32.2266H43.0664C43.6058 32.2266 44.043 32.6638 44.043 33.2031Z" fill="#F44545"/>
<path d="M9.76562 33.2031V44.8236C8.37246 43.7515 7.09561 42.5356 5.95703 41.1984V33.2031C5.95703 32.6638 6.39424 32.2266 6.93359 32.2266H8.78906C9.32842 32.2266 9.76562 32.6638 9.76562 33.2031Z" fill="#B03244"/>
<path d="M24.9023 33.2031V49.9998C23.6072 49.9948 22.3354 49.8914 21.0938 49.6966V33.2031C21.0938 32.6638 21.531 32.2266 22.0703 32.2266H23.9258C24.4651 32.2266 24.9023 32.6638 24.9023 33.2031ZM31.4941 32.2266H29.6387C29.0993 32.2266 28.6621 32.6638 28.6621 33.2031V49.7337C29.9672 49.5422 31.2394 49.2497 32.4707 48.8646V33.2031C32.4707 32.6638 32.0335 32.2266 31.4941 32.2266ZM39.0625 32.2266H37.207C36.6677 32.2266 36.2305 32.6638 36.2305 33.2031V47.3416C37.5739 46.6649 38.8479 45.8707 40.0391 44.9725V33.2031C40.0391 32.6638 39.6019 32.2266 39.0625 32.2266ZM16.3574 32.2266H14.502C13.9626 32.2266 13.5254 32.6638 13.5254 33.2031V47.2169C14.7401 47.8456 16.0131 48.3775 17.334 48.8026V33.2031C17.334 32.6638 16.8968 32.2266 16.3574 32.2266Z" fill="#C83C50"/>
<path d="M17.5781 31.25V35.1562C17.5781 35.6956 17.1409 36.1328 16.6016 36.1328H5.85938C5.32002 36.1328 4.88281 35.6956 4.88281 35.1562V31.25C4.88281 30.7106 5.32002 30.2734 5.85938 30.2734H16.6016C17.1409 30.2734 17.5781 30.7106 17.5781 31.25Z" fill="#F44545"/>
<path d="M45.1172 31.25V35.1562C45.1172 35.6956 44.68 36.1328 44.1406 36.1328H13.6719C12.0538 36.1328 10.7422 34.8212 10.7422 33.2031C10.7422 31.5851 12.0538 30.2734 13.6719 30.2734H44.1406C44.68 30.2734 45.1172 30.7106 45.1172 31.25Z" fill="#FB5858"/>
<path d="M30.1194 25.884C29.564 25.9337 29.013 26.0479 28.4778 26.2266L25.3704 27.2642V15.6384C25.3704 15.0991 25.8076 14.6619 26.3469 14.6619H30.1758C30.1758 14.6619 30.4272 25.8565 30.1194 25.884Z" fill="#C83C50"/>
<path d="M36.1531 15.6384V27.2643L33.0457 26.2267C32.0985 25.9104 31.102 25.7962 30.1192 25.8841C29.5198 23.7388 29.1992 21.4771 29.1992 19.1406C29.1992 17.6118 29.3365 16.115 29.5993 14.6619H35.1766C35.7159 14.6619 36.1531 15.0991 36.1531 15.6384Z" fill="#F44545"/>
<path d="M34.1797 17.8223C34.1797 18.1762 33.8928 18.4632 33.5387 18.4632H27.9845C27.6306 18.4632 27.3436 18.1763 27.3436 17.8223C27.3436 17.4682 27.6305 17.1813 27.9845 17.1813H33.5387C33.8928 17.1814 34.1797 17.4683 34.1797 17.8223ZM28.8391 23.7366H32.6844C33.0383 23.7366 33.3253 23.4497 33.3253 23.0957C33.3253 22.7418 33.0384 22.4548 32.6844 22.4548H28.8391C28.4852 22.4548 28.1982 22.7417 28.1982 23.0957C28.1982 23.4496 28.4851 23.7366 28.8391 23.7366ZM29.4591 21.0999H32.0644C32.4183 21.0999 32.7053 20.813 32.7053 20.459C32.7053 20.105 32.4184 19.8181 32.0644 19.8181H29.4591C29.1052 19.8181 28.8181 20.105 28.8181 20.459C28.8181 20.813 29.1051 21.0999 29.4591 21.0999Z" fill="#842939"/>
</g>
<defs>
<clipPath id="clip0">
<rect width="50" height="50" fill="white"/>
</clipPath>
</defs>
</svg>
