<svg width="50" height="50" viewBox="0 0 50 50" fill="none" xmlns="http://www.w3.org/2000/svg">
<path d="M50 25C50 38.8073 38.8073 50 25 50C11.1927 50 0 38.8073 0 25C0 11.1927 11.1927 0 25 0C38.8073 0 50 11.1927 50 25Z" fill="#009688"/>
<path d="M48.801 32.6656C47.0134 29.1946 43.3952 26.8207 39.2223 26.8207H27.6901C27.2045 26.8207 26.8108 27.2144 26.8108 27.7V39.2322C26.8108 43.4017 29.1812 47.0177 32.6477 48.8067C40.2969 46.3512 46.3398 40.3126 48.801 32.6656Z" fill="#6060F4"/>
<path d="M12.4214 0H0.889176C0.403564 0 0.0098877 0.393677 0.0098877 0.879288V12.4115C0.0098877 18.3582 4.8309 23.1792 10.7776 23.1792H22.3098C22.7955 23.1792 23.1891 22.7856 23.1891 22.3V10.7677C23.1891 4.82101 18.3681 0 12.4214 0Z" fill="#F754B1"/>
<path d="M13.1962 26.8207H22.4811C22.8721 26.8207 23.1891 27.1377 23.1891 27.5287V36.8137C23.1891 41.6019 19.3077 45.4834 14.5195 45.4834H5.2345C4.84349 45.4834 4.52649 45.1668 4.52649 44.7758V35.4904C4.52649 30.7022 8.40794 26.8207 13.1962 26.8207Z" fill="#F7DF9A"/>
<path d="M36.8038 23.1792H27.5188C27.1278 23.1792 26.8108 22.8622 26.8108 22.4712V13.1863C26.8108 8.39806 30.6922 4.5166 35.4805 4.5166H44.7654C45.1564 4.5166 45.4734 4.83322 45.4734 5.22423V14.5096C45.4734 19.2978 41.592 23.1792 36.8038 23.1792Z" fill="#FB918A"/>
<path d="M30.6194 39.2322V27.7C30.6194 27.2144 31.0131 26.8207 31.4987 26.8207H27.6901C27.2045 26.8207 26.8108 27.2144 26.8108 27.7V39.2322C26.8108 43.4017 29.1812 47.0177 32.6477 48.8067C33.4552 48.5477 34.2433 48.246 35.0128 47.9091C32.349 45.9492 30.6194 42.7933 30.6194 39.2322Z" fill="#4C4CED"/>
<path d="M3.81848 12.4115V0.879288C3.81848 0.393677 4.21216 0 4.69777 0H0.889176C0.403564 0 0.0098877 0.393677 0.0098877 0.879288V12.4115C0.0098877 18.3582 4.8309 23.1792 10.7776 23.1792H14.5862C8.6395 23.1792 3.81848 18.3582 3.81848 12.4115Z" fill="#F240AE"/>
<path d="M8.33508 44.7758V35.4904C8.33508 30.7022 12.2165 26.8207 17.0047 26.8207H13.1962C8.40794 26.8207 4.52649 30.7022 4.52649 35.4904V44.7758C4.52649 45.1664 4.84349 45.4834 5.2345 45.4834H9.04309C8.65208 45.4834 8.33508 45.1664 8.33508 44.7758Z" fill="#F4C758"/>
<path d="M30.6194 22.4712V13.1863C30.6194 8.39806 34.5008 4.5166 39.289 4.5166H35.4805C30.6922 4.5166 26.8108 8.39806 26.8108 13.1863V22.4712C26.8108 22.8622 27.1278 23.1792 27.5188 23.1792H31.3274C30.9364 23.1792 30.6194 22.8622 30.6194 22.4712Z" fill="#F46969"/>
<path d="M11.5998 9.49059H8.09521C7.61647 9.49059 7.22852 9.10301 7.22852 8.62427C7.22852 8.14552 7.61647 7.75757 8.09521 7.75757H11.5998C12.0781 7.75757 12.4661 8.14552 12.4661 8.62427C12.4661 9.10301 12.0781 9.49059 11.5998 9.49059Z" fill="#FC86BF"/>
<path d="M15.104 12.4562H8.09521C7.61647 12.4562 7.22852 12.0682 7.22852 11.5898C7.22852 11.1111 7.61647 10.7231 8.09521 10.7231H15.104C15.5827 10.7231 15.9707 11.1111 15.9707 11.5898C15.9707 12.0682 15.5827 12.4562 15.104 12.4562Z" fill="#FC86BF"/>
<path d="M15.104 15.4213H8.09521C7.61647 15.4213 7.22852 15.0334 7.22852 14.555C7.22852 14.0762 7.61647 13.6883 8.09521 13.6883H15.104C15.5827 13.6883 15.9707 14.0762 15.9707 14.555C15.9707 15.0334 15.5827 15.4213 15.104 15.4213Z" fill="#FC86BF"/>
<path d="M38.4003 36.3114H34.8961C34.4174 36.3114 34.0294 35.9238 34.0294 35.4451C34.0294 34.9663 34.4174 34.5787 34.8961 34.5787H38.4003C38.879 34.5787 39.267 34.9663 39.267 35.4451C39.267 35.9238 38.879 36.3114 38.4003 36.3114Z" fill="#887EFF"/>
<path d="M41.9049 39.2769H34.8961C34.4174 39.2769 34.0294 38.8889 34.0294 38.4106C34.0294 37.9318 34.4174 37.5439 34.8961 37.5439H41.9049C42.3836 37.5439 42.7716 37.9318 42.7716 38.4106C42.7716 38.8889 42.3836 39.2769 41.9049 39.2769Z" fill="#887EFF"/>
<path d="M41.9049 42.2421H34.8961C34.4174 42.2421 34.0294 41.8545 34.0294 41.3757C34.0294 40.897 34.4174 40.509 34.8961 40.509H41.9049C42.3836 40.509 42.7716 40.897 42.7716 41.3757C42.7716 41.8545 42.3836 42.2421 41.9049 42.2421Z" fill="#887EFF"/>
</svg>
