<svg width="48" height="48" viewBox="0 0 48 48" fill="none" xmlns="http://www.w3.org/2000/svg">
<path d="M48 24C48 26.9985 47.4504 29.8697 46.4453 32.5165C45.9369 33.8546 45.3129 35.136 44.5841 36.3468C43.871 37.5331 43.0569 38.6528 42.1567 39.6951C42.095 39.7666 42.0332 39.8371 41.9695 39.9076C41.5807 40.3475 41.176 40.7725 40.7548 41.182C40.5511 41.3819 40.3433 41.5768 40.1328 41.7688C35.8707 45.6412 30.2116 48 24 48C17.7884 48 12.1293 45.6412 7.86713 41.7688C5.82956 39.9173 4.11141 37.7212 2.80659 35.2712C1.01484 31.9102 0 28.0732 0 24C0 10.7452 10.7452 0 24 0C37.2548 0 48 10.7452 48 24Z" fill="#009688"/>
<path d="M26.1685 23.6143H21.5117V27.1007C21.5117 27.7706 22.0547 28.3135 22.7245 28.3135H24.9557C25.6255 28.3135 26.1685 27.7706 26.1685 27.1007V23.6143Z" fill="#A59CA6"/>
<path d="M25.8628 27.5937H23.6316C22.9618 27.5937 22.4188 27.0507 22.4188 26.3809V26.0787C22.4188 25.8191 22.6293 25.6086 22.8889 25.6086H26.1685V23.6143H21.5117V27.1007C21.5117 27.7706 22.0547 28.3135 22.7245 28.3135H24.9557C25.4574 28.3135 25.8879 28.0089 26.0724 27.5744C26.0042 27.5864 25.9344 27.5937 25.8628 27.5937Z" fill="#8F8390"/>
<path d="M35.3993 33.4945L39.1034 30.3724C39.8653 29.7303 39.9595 28.5954 39.3138 27.8377C38.6681 27.0799 37.5271 26.9862 36.7652 27.6284L29.066 34.1178L26.1685 36.6284L30.2243 38.223L35.3993 33.4945Z" fill="#FFE0D1"/>
<path d="M27.4612 37.004L30.3587 34.4934L38.0579 28.0039C38.35 27.7577 38.6987 27.6211 39.053 27.5872C38.3915 27.0687 37.4325 27.0661 36.7652 27.6286L29.066 34.118L26.1685 36.6287L30.2243 38.2233L30.326 38.1303L27.4612 37.004Z" fill="#FFD1C2"/>
<path d="M29.2303 34.0294L35.0745 29.142C35.7181 28.4856 35.7646 27.4418 35.1536 26.7302C34.5028 25.9725 33.3528 25.8788 32.5849 26.5209L27.3774 30.876L23.4932 33.8849L25.8084 36.8254L29.2303 34.0294Z" fill="#FFE0D1"/>
<path d="M24.8059 34.4898L28.6901 31.4809L33.8976 27.1258C34.2543 26.8275 34.6949 26.6892 35.1281 26.7013C34.4732 25.9707 33.3428 25.8873 32.5849 26.521L27.3774 30.876L23.4932 33.885L25.8083 36.8253L26.3173 36.4094L24.8059 34.4898Z" fill="#FFD1C2"/>
<path d="M31.7439 12.9038C31.7439 8.53868 28.2052 5 23.84 5C19.4749 5 15.9363 8.53868 15.9363 12.9038C15.9363 14.5972 16.4691 16.1661 17.3759 17.4524L21.179 23.3731V24.143C21.179 24.6278 21.572 25.0207 22.0567 25.0207H25.6232C26.1079 25.0207 26.5009 24.6278 26.5009 24.143V23.3731L30.304 17.4524C31.211 16.1661 31.7439 14.5972 31.7439 12.9038Z" fill="#FBE88C"/>
<path d="M20.709 18.461C19.7609 17.0705 19.2038 15.3745 19.2038 13.5439C19.2038 9.47141 21.9591 6.06471 25.6478 5.20795C25.067 5.07201 24.4624 5 23.84 5C19.4749 5 15.9363 8.53868 15.9363 12.9038C15.9363 14.5972 16.4691 16.1661 17.3759 17.4524L21.179 23.3731V24.143C21.179 24.6278 21.572 25.0207 22.0567 25.0207H24.3155L20.709 18.461Z" fill="#FBE372"/>
<path d="M24.3607 25.0209H25.5496L25.9632 18.0021H26.6403C27.609 18.0021 28.3972 17.2139 28.3972 16.2452V16.1731C28.3972 15.2045 27.609 14.4163 26.6403 14.4163C25.7115 14.4163 24.9411 15.1426 24.8864 16.0698L24.8426 16.8135H22.7585L22.7146 16.0698C22.66 15.1426 21.8896 14.4163 20.9608 14.4163C19.9921 14.4163 19.2039 15.2045 19.2039 16.1731V16.2452C19.2039 17.2139 19.9921 18.0021 20.9608 18.0021H21.6379L22.0515 25.0207C22.0533 25.0207 22.0551 25.0209 22.057 25.0209H23.2404C23.2404 25.0093 22.8285 18.0021 22.8285 18.0021H24.7726C24.7724 18.002 24.3607 25.0093 24.3607 25.0209ZM26.0728 16.1397C26.0905 15.8398 26.3397 15.6048 26.6401 15.6048C26.9535 15.6048 27.2084 15.8598 27.2084 16.1731V16.2452C27.2084 16.5586 26.9535 16.8134 26.6401 16.8134H26.0331L26.0728 16.1397ZM20.9607 16.8134C20.6474 16.8134 20.3924 16.5585 20.3924 16.2452V16.1731C20.3924 15.8598 20.6474 15.6048 20.9607 15.6048C21.2612 15.6048 21.5104 15.8398 21.528 16.1397L21.5677 16.8134H20.9607Z" fill="#F9DE58"/>
<path d="M28.3364 34.1021L28.4806 34.1182H33.9939C34.4147 34.1182 34.8211 33.9689 35.1416 33.6974L40.9913 28.7398C41.3295 28.4539 41.7418 28.314 42.1525 28.314C42.6627 28.314 43.1695 28.5298 43.5253 28.9489C44.1679 29.707 44.0743 30.8421 43.3162 31.4838L34.0824 39.3101C33.1287 40.118 31.9583 40.6282 30.717 40.7774L20.4055 42.0179L16.4035 46.8096C16.2653 46.9751 16.0406 47.0403 15.8353 46.9746L4.41663 43.3222C4.06381 43.2094 3.93268 42.7786 4.16272 42.4883L8.5703 36.9254L8.89833 36.2331C10.5064 32.8423 13.9242 30.681 17.6767 30.681H26.4104C27.0327 30.681 27.5952 30.9331 28.0033 31.3404C28.4106 31.7486 28.6628 32.311 28.6628 32.9334C28.6628 33.3617 28.543 33.7615 28.3364 34.1021Z" fill="#FFE0D1"/>
<path d="M42.1526 28.314C41.7419 28.314 41.3295 28.4539 40.9914 28.7398L35.1417 33.6974C34.8212 33.9689 34.4148 34.1182 33.994 34.1182H28.4807L28.3365 34.1021C28.3788 34.0323 28.4165 33.9595 28.4513 33.885H16.4902V34.3175C16.4902 35.4951 17.4449 36.4498 18.6225 36.4498H26.349C26.3703 36.4502 26.3913 36.4504 26.4125 36.4504C27.3888 36.4504 28.321 36.0339 28.9802 35.3312C29.1276 35.174 29.3337 35.0853 29.5491 35.0853H34.5757C35.0184 35.0853 35.4461 34.9235 35.7832 34.629L41.938 29.2534C42.2938 28.9435 42.7277 28.7917 43.1598 28.7917C43.237 28.7917 43.314 28.7971 43.3906 28.8067C43.0475 28.4813 42.6014 28.314 42.1526 28.314Z" fill="#FFD1C2"/>
<path d="M28.6627 32.9333C28.6627 33.3617 28.543 33.7614 28.3364 34.102C27.9324 34.7657 27.1954 35.2033 26.3614 35.1848H15.3535L15.2759 30.9811C16.05 30.7846 16.8553 30.6809 17.6767 30.6809H26.4103C27.0327 30.6809 27.5951 30.933 28.0033 31.3403C28.4106 31.7485 28.6627 32.3109 28.6627 32.9333Z" fill="#FFE0D1"/>
<path d="M36.917 14.2856H35.4262C35.0768 14.2856 34.7937 14.0026 34.7937 13.6532C34.7937 13.3038 35.0768 13.0208 35.4262 13.0208H36.917C37.2664 13.0208 37.5495 13.3038 37.5495 13.6532C37.5495 14.0026 37.2664 14.2856 36.917 14.2856Z" fill="#FBE88C"/>
<path d="M34.4259 10.3094C34.1689 10.3094 33.9273 10.1516 33.8328 9.8965C33.7114 9.56898 33.8785 9.20511 34.206 9.08368L35.6039 8.56549C35.9314 8.44406 36.2952 8.61119 36.4167 8.93872C36.5381 9.26624 36.371 9.63011 36.0435 9.75154L34.6456 10.2697C34.5732 10.2966 34.4989 10.3094 34.4259 10.3094Z" fill="#FBE88C"/>
<path d="M35.8236 18.7806C35.7506 18.7806 35.6763 18.7679 35.6039 18.741L34.206 18.2229C33.8785 18.1015 33.7114 17.7376 33.8328 17.41C33.9541 17.0826 34.3181 16.9156 34.6456 17.0368L36.0435 17.5549C36.371 17.6763 36.5381 18.0402 36.4167 18.3677C36.3222 18.6228 36.0805 18.7806 35.8236 18.7806Z" fill="#FBE88C"/>
<path d="M12.2542 14.2856H10.7633C10.4139 14.2856 10.1309 14.0026 10.1309 13.6532C10.1309 13.3038 10.4139 13.0208 10.7633 13.0208H12.2542C12.6036 13.0208 12.8866 13.3038 12.8866 13.6532C12.8866 14.0026 12.6035 14.2856 12.2542 14.2856Z" fill="#FBE88C"/>
<path d="M13.2545 10.3092C13.1814 10.3092 13.1072 10.2965 13.0348 10.2696L11.6369 9.7514C11.3094 9.63006 11.1424 9.26611 11.2637 8.93858C11.3851 8.61106 11.7492 8.44426 12.0765 8.56535L13.4744 9.08354C13.8019 9.20488 13.969 9.56884 13.8476 9.89636C13.753 10.1514 13.5114 10.3092 13.2545 10.3092Z" fill="#FBE88C"/>
<path d="M11.8568 18.7807C11.5997 18.7807 11.3582 18.6229 11.2637 18.3678C11.1424 18.0403 11.3094 17.6765 11.6369 17.555L13.0348 17.0369C13.3624 16.9155 13.7262 17.0826 13.8476 17.4102C13.9691 17.7377 13.8019 18.1015 13.4744 18.223L12.0765 18.7411C12.004 18.768 11.9297 18.7807 11.8568 18.7807Z" fill="#FBE88C"/>
<path d="M9.82565 38.7142L10.1537 38.0219C11.7618 34.6311 15.1795 32.4698 18.9321 32.4698H27.6658C28.019 32.4698 28.3538 32.5518 28.6511 32.6965C28.5959 32.1691 28.3582 31.6959 28.0033 31.3403C27.5952 30.933 27.0327 30.6809 26.4104 30.6809H17.6767C13.9242 30.6809 10.5064 32.8422 8.89831 36.233L8.57028 36.9253L4.1627 42.4882C3.93266 42.7786 4.06387 43.2093 4.41661 43.3221L5.81921 43.7707L9.82565 38.7142Z" fill="#FFD1C2"/>
</svg>
