<svg width="50" height="50" viewBox="0 0 50 50" fill="none" xmlns="http://www.w3.org/2000/svg">
<g clip-path="url(#clip0)">
<path d="M50 25C50 35.144 43.9583 43.8774 35.2764 47.797C34.692 48.0614 34.095 48.3032 33.4866 48.5226C31.0287 49.4102 28.3909 49.9226 25.6428 49.992C25.4295 49.9969 25.2151 50 25 50C21.8624 50 18.8602 49.4225 16.0927 48.3673C13.8256 47.5021 11.7172 46.3161 9.82246 44.8662C8.96645 44.2112 8.15392 43.502 7.38983 42.7441C2.82555 38.2153 0 31.9378 0 25C0 11.1927 11.1927 0 25 0C38.8073 0 50 11.1927 50 25Z" fill="#009688"/>
<path d="M33.4866 48.5226C31.0288 49.4102 28.3909 49.9225 25.6428 49.992C25.4296 49.9969 25.2152 50 25 50C21.8625 50 18.8603 49.4224 16.0927 48.3673C13.8257 47.5021 11.7173 46.3161 9.82251 44.8662C10.2063 40.5022 11.6604 36.8561 16.0927 36.356C16.2072 36.3418 16.3224 36.3308 16.4387 36.3212C16.7328 36.298 17.0285 36.2858 17.3275 36.2858H24.4061C24.8234 36.2858 25.2369 36.3083 25.6428 36.3552C26.0491 36.3998 26.4481 36.4685 26.8387 36.5581C31.6716 37.6633 31.8512 41.552 31.8512 46.7174L33.4866 48.5226Z" fill="#F2EFEA"/>
<path d="M16.0927 36.356V48.3673C12.8022 47.1111 9.84503 45.1805 7.38989 42.744C8.92264 39.2971 12.1949 36.7958 16.0927 36.356Z" fill="#DD104F"/>
<path d="M35.2765 47.1543V47.797C32.3254 49.1295 29.0703 49.905 25.6428 49.992V36.3552C26.0491 36.3999 26.4481 36.4685 26.8387 36.5582C31.6716 37.6633 35.2765 41.9888 35.2765 47.1543Z" fill="#FB3A4A"/>
<path d="M20.8664 40.7349L15.9729 43.4544L14.4844 36.5307L17.5251 34.7397" fill="#D8D4CE"/>
<path d="M20.8665 40.7349L25.7596 43.4544L27.2484 36.5307L24.2077 34.7397" fill="#D8D4CE"/>
<path d="M24.7452 32.0988V36.8576C24.7452 38.6001 23.5962 40.0726 22.0139 40.562C21.6515 40.6742 21.2654 40.7352 20.8664 40.7352C18.7248 40.7352 16.9891 38.9995 16.9891 36.8576V32.0988H24.7452Z" fill="#EAA27F"/>
<path d="M24.7452 36.5563V36.8576C24.7452 38.6002 23.5962 40.0727 22.0139 40.5621C20.586 40.123 19.5126 38.8817 19.3142 37.3627C19.5732 37.3787 19.8338 37.3867 20.0955 37.3867C20.8294 37.3867 21.5485 37.3284 22.2492 37.2135C23.1125 37.0747 23.9464 36.8523 24.7452 36.5563Z" fill="#F6BA97"/>
<path d="M10.054 24.2989C10.054 26.0941 8.74251 27.583 7.02551 27.8592C6.83745 27.8897 6.64481 27.9053 6.44759 27.9053C4.45555 27.9053 2.84155 26.2913 2.84155 24.2989C2.84155 22.3069 4.45555 20.6929 6.44759 20.6929C6.64481 20.6929 6.83783 20.7085 7.02551 20.739C8.74289 21.0152 10.054 22.5037 10.054 24.2989Z" fill="#F6BA97"/>
<path d="M10.054 24.2989C10.054 26.0941 8.74249 27.583 7.0255 27.8591C6.71346 26.7247 6.54675 25.531 6.54675 24.2989C6.54675 23.0671 6.71346 21.8731 7.0255 20.739C8.74287 21.0152 10.054 22.5037 10.054 24.2989Z" fill="#EAA27F"/>
<path d="M7.73653 24.2989C7.73653 25.0107 7.15936 25.5878 6.44754 25.5878C5.73572 25.5878 5.15894 25.0107 5.15894 24.2989C5.15894 23.587 5.73572 23.0103 6.44754 23.0103C7.15936 23.0103 7.73653 23.587 7.73653 24.2989Z" fill="#EAA27F"/>
<path d="M31.6799 24.2989C31.6799 26.0941 32.9914 27.583 34.7088 27.8592C34.8965 27.8897 35.0895 27.9053 35.2863 27.9053C37.2788 27.9053 38.8928 26.2913 38.8928 24.2989C38.8928 22.3069 37.2788 20.6929 35.2863 20.6929C35.0895 20.6929 34.8965 20.7085 34.7088 20.739C32.9914 21.0152 31.6799 22.5037 31.6799 24.2989Z" fill="#F6BA97"/>
<path d="M31.6799 24.2989C31.6799 26.0941 32.9914 27.583 34.7088 27.8591C35.0205 26.7247 35.1872 25.531 35.1872 24.2989C35.1872 23.0671 35.0208 21.8731 34.7088 20.739C32.9914 21.0152 31.6799 22.5037 31.6799 24.2989Z" fill="#EAA27F"/>
<path d="M36.5753 24.2989C36.5753 25.0107 35.9981 25.5878 35.2863 25.5878C34.5745 25.5878 33.9973 25.0107 33.9973 24.2989C33.9973 23.587 34.5745 23.0103 35.2863 23.0103C35.9981 23.0103 36.5753 23.587 36.5753 24.2989Z" fill="#EAA27F"/>
<path d="M34.285 17.2733V22.3827C34.285 29.0596 29.4071 34.5989 23.0202 35.6266C22.9984 35.63 22.9759 35.6338 22.9546 35.6373C22.2752 35.746 21.5778 35.7998 20.8664 35.7998C13.4563 35.7998 7.44934 29.7924 7.44934 22.3827V17.2729C7.44934 15.7127 7.71561 14.2132 8.20732 12.82C10.0422 7.59848 15.0181 3.85474 20.8664 3.85474H20.8675C21.5778 3.85474 22.2763 3.90967 22.9568 4.01724C29.3747 5.02013 34.285 10.5736 34.285 17.2733Z" fill="#EAA27F"/>
<path d="M34.285 17.2733V22.3827C34.285 29.0596 29.4071 34.5989 23.0202 35.6266C22.9984 35.63 22.9759 35.6338 22.9545 35.6373C16.5367 34.6348 11.6276 29.0809 11.6276 22.3827V17.2729C11.6276 10.5735 16.5375 5.01973 22.9568 4.01685C29.3747 5.02011 34.285 10.5735 34.285 17.2733Z" fill="#F6BA97"/>
<path d="M29.9995 25.9056C29.9995 26.8288 29.2515 27.5768 28.3283 27.5768C27.4052 27.5768 26.6571 26.8288 26.6571 25.9056C26.6571 24.9824 27.4052 24.2344 28.3283 24.2344C29.2515 24.2344 29.9995 24.9824 29.9995 25.9056Z" fill="#EAA27F"/>
<path d="M15.0772 25.9056C15.0772 26.8288 14.3288 27.5768 13.406 27.5768C12.4828 27.5768 11.7344 26.8288 11.7344 25.9056C11.7344 24.9824 12.4828 24.2344 13.406 24.2344C14.3288 24.2344 15.0772 24.9824 15.0772 25.9056Z" fill="#EAA27F"/>
<path d="M28.0727 21.2494C28.0727 20.0188 27.0748 19.0209 25.8441 19.0209C24.6131 19.0209 23.6156 20.0188 23.6156 21.2494" fill="#EAA27F"/>
<path d="M18.1194 21.2494C18.1194 20.0188 17.1219 19.0209 15.8909 19.0209C14.6603 19.0209 13.6624 20.0188 13.6624 21.2494" fill="#EAA27F"/>
<path d="M17.4129 22.1981C17.4129 23.0388 16.7316 23.7202 15.8908 23.7202C15.0501 23.7202 14.3688 23.0388 14.3688 22.1981C14.3688 21.3573 15.0501 20.676 15.8908 20.676C16.7316 20.676 17.4129 21.3573 17.4129 22.1981Z" fill="#2F373B"/>
<path d="M27.3663 22.1981C27.3663 23.0388 26.685 23.7202 25.8442 23.7202C25.0034 23.7202 24.3221 23.0388 24.3221 22.1981C24.3221 21.3573 25.0034 20.676 25.8442 20.676C26.685 20.676 27.3663 21.3573 27.3663 22.1981Z" fill="#2F373B"/>
<path d="M22.3896 26.0307H19.3455C18.9827 26.0307 18.689 25.7366 18.689 25.3738C18.689 25.0114 18.9827 24.7173 19.3455 24.7173H22.3896C22.7524 24.7173 23.0465 25.0114 23.0465 25.3738C23.0461 25.7366 22.7524 26.0307 22.3896 26.0307Z" fill="#EAA27F"/>
<path d="M20.8675 30.1846C19.7441 30.1846 18.6203 29.903 17.596 29.34C17.3072 29.1813 17.202 28.8185 17.3606 28.5294C17.5197 28.2406 17.8825 28.1353 18.1713 28.294C19.8597 29.2221 21.8753 29.2221 23.5637 28.294C23.8521 28.1353 24.2153 28.2406 24.3743 28.5294C24.533 28.8185 24.4278 29.1813 24.1386 29.34C23.1147 29.903 21.9909 30.1846 20.8675 30.1846Z" fill="#EAA27F"/>
<path d="M17.1028 21.9295C17.1028 22.2896 16.8106 22.5818 16.4505 22.5818C16.0904 22.5818 15.7982 22.2896 15.7982 21.9295C15.7982 21.5694 16.0904 21.2772 16.4505 21.2772C16.8106 21.2772 17.1028 21.5694 17.1028 21.9295Z" fill="white"/>
<path d="M27.1309 21.9295C27.1309 22.2896 26.8387 22.5818 26.4786 22.5818C26.1181 22.5818 25.8263 22.2896 25.8263 21.9295C25.8263 21.5694 26.1181 21.2772 26.4786 21.2772C26.8387 21.2772 27.1309 21.5694 27.1309 21.9295Z" fill="white"/>
<path d="M34.285 18.5112C29.7951 18.5112 28.1106 12.3356 28.1106 12.3356C28.1106 12.3356 23.4139 16.7934 16.1725 16.3158C13.1665 16.1175 11.2565 16.988 10.0518 18.0756C9.00503 19.0208 8.48928 20.129 8.24781 20.8393C8.05098 21.4207 7.36929 21.7094 6.83943 21.4005C6.6136 21.2688 6.44766 21.0506 6.44766 20.6924C6.44766 19.5786 7.4494 17.2733 7.4494 17.2733L5.66717 16.7934C4.88516 11.3808 8.65141 8.79478 8.65141 8.79478L7.17817 8.59566C8.77081 2.86522 15.4561 3.10402 15.4561 3.10402L14.5012 1.27373C19.513 -0.450134 22.4446 2.22054 22.5365 2.30637H22.538L22.5392 2.30789L23.2556 0C31.1345 1.99013 31.1345 6.36673 31.1345 6.36673L32.8858 3.66135C38.9336 11.5322 34.285 18.5112 34.285 18.5112Z" fill="#FECF32"/>
<path d="M17.9226 2.62649L18.639 3.82011C18.639 3.82011 15.3763 4.45678 14.74 7.72025L16.8088 7.48145C16.8088 7.48145 12.2723 9.43115 12.2723 11.6193L16.4078 11.7398C16.2335 11.7993 10.6881 13.49 10.0518 18.0753C9.00503 19.0209 8.48928 20.1287 8.24819 20.839C8.05097 21.4204 7.36929 21.7095 6.83943 21.4001C6.6136 21.2689 6.44766 21.0503 6.44766 20.6921C6.44766 19.5786 7.4494 17.273 7.4494 17.273L5.66717 16.7931C4.88516 11.3805 8.65141 8.79486 8.65141 8.79486L7.17855 8.59535C8.77081 2.86529 15.4564 3.10371 15.4564 3.10371L14.5012 1.2738C19.513 -0.450064 22.445 2.22061 22.5369 2.30644C22.4637 2.26943 20.4987 1.29897 17.9226 2.62649Z" fill="#FDAE2F"/>
<path d="M37.7098 27.6326C37.7098 28.1991 37.2505 28.658 36.6844 28.658C36.118 28.658 35.6591 28.1991 35.6591 27.6326C35.6591 27.0665 36.118 26.6072 36.6844 26.6072C37.2505 26.6072 37.7098 27.0665 37.7098 27.6326Z" fill="#FB3A4A"/>
<path d="M6.07605 27.6326C6.07605 28.1991 5.61714 28.658 5.05066 28.658C4.48456 28.658 4.02527 28.1991 4.02527 27.6326C4.02527 27.0665 4.48456 26.6072 5.05066 26.6072C5.61714 26.6072 6.07605 27.0665 6.07605 27.6326Z" fill="#FB3A4A"/>
<path d="M45.443 39.394C42.1704 44.0338 37.3574 47.5101 31.7471 49.0787C29.0551 47.4785 27.2511 44.5408 27.2511 41.1815C27.2511 36.1103 31.3633 31.998 36.4346 31.998C40.8951 31.998 44.6114 35.1776 45.443 39.394Z" fill="#66BAED"/>
<path d="M41.0263 39.8041H37.812V36.5898H35.057V39.8041H31.8428V42.5591H35.057V45.773H37.812V42.5591H41.0263V39.8041Z" fill="white"/>
</g>
<defs>
<clipPath id="clip0">
<rect width="50" height="50" fill="white"/>
</clipPath>
</defs>
</svg>
