<svg width="50" height="50" viewBox="0 0 50 50" fill="none" xmlns="http://www.w3.org/2000/svg">
<path d="M50 25C50 28.1234 49.4275 31.1143 48.3806 33.8714C47.851 35.2652 47.201 36.6 46.4418 37.8612C45.6989 39.097 44.851 40.2633 43.9132 41.349C43.8489 41.4235 43.7846 41.497 43.7183 41.5704C43.3132 42.0286 42.8917 42.4714 42.4529 42.8979C42.2407 43.1062 42.0243 43.3092 41.805 43.5092C37.3653 47.5429 31.4704 50 25 50C18.5296 50 12.6347 47.5429 8.19492 43.5092C6.07246 41.5806 4.28271 39.2929 2.92354 36.7408C1.05713 33.2397 0 29.2429 0 25C0 11.1929 11.1929 0 25 0C38.8071 0 50 11.1929 50 25Z" fill="#009688"/>
<path d="M38.2207 19.8417L25.8424 3.60044L13.464 19.8417L12.2466 18.9139L25.2337 1.87397C25.3784 1.68403 25.6036 1.57251 25.8424 1.57251C26.0812 1.57251 26.3063 1.68394 26.4511 1.87397L39.4381 18.914L38.2207 19.8417Z" fill="#FFE261"/>
<path d="M48.3806 22.5112C48.3806 20.2459 46.5439 18.4082 44.2776 18.4082H40.299H11.0062H7.02661C4.76128 18.4082 2.92358 20.246 2.92358 22.5112V36.7408C4.28276 39.2929 6.07261 41.5806 8.19497 43.5092H11.0062H40.2991H41.8052C42.0242 43.3102 42.2384 43.1061 42.4501 42.8997C42.4511 42.8991 42.4522 42.8986 42.4531 42.8979C43.0653 42.5204 43.5705 41.9847 43.9132 41.3489C43.9138 41.3477 43.9143 41.3465 43.9151 41.3452C45.8112 39.153 47.3336 36.6291 48.3806 33.8712V22.5112Z" fill="#FB5858"/>
<path d="M25.8418 8.05176C27.7014 8.05176 29.209 6.54422 29.209 4.68457C29.209 2.82492 27.7014 1.31738 25.8418 1.31738C23.9821 1.31738 22.4746 2.82492 22.4746 4.68457C22.4746 6.54422 23.9821 8.05176 25.8418 8.05176Z" fill="#FB5858"/>
<path d="M10.1295 32.8324V29.5545C10.1295 27.4271 11.453 26.6355 13.1599 26.6355C14.8668 26.6355 16.2027 27.4271 16.2027 29.5545V32.8324C16.2027 34.9598 14.8668 35.7513 13.1599 35.7513C11.453 35.7513 10.1295 34.9597 10.1295 32.8324ZM14.2731 29.5545C14.2731 28.701 13.8526 28.3176 13.1599 28.3176C12.4672 28.3176 12.059 28.7011 12.059 29.5545V32.8324C12.059 33.6859 12.4672 34.0692 13.1599 34.0692C13.8527 34.0692 14.2731 33.6858 14.2731 32.8324V29.5545Z" fill="#F2F2F7"/>
<path d="M18.6761 27.2159C18.6761 26.9067 18.9606 26.6345 19.3936 26.6345H21.9541C23.5867 26.6345 24.8731 27.4014 24.8731 29.4794V29.5413C24.8731 31.6192 23.5373 32.4109 21.8303 32.4109H20.6058V35.0827C20.6058 35.4785 20.1234 35.6763 19.641 35.6763C19.1586 35.6763 18.6761 35.4785 18.6761 35.0827V27.216V27.2159ZM20.6058 28.3167V30.9265H21.8303C22.523 30.9265 22.9436 30.5307 22.9436 29.6896V29.5536C22.9436 28.7125 22.523 28.3167 21.8303 28.3167H20.6058Z" fill="#F2F2F7"/>
<path d="M28.8802 30.4072H30.7354C31.1064 30.4072 31.3168 30.7659 31.3168 31.1617C31.3168 31.4956 31.1436 31.8914 30.7354 31.8914H28.8802V33.9942H32.1949C32.566 33.9942 32.7762 34.39 32.7762 34.8477C32.7762 35.2435 32.6031 35.6765 32.1949 35.6765H27.7917C27.3711 35.6765 26.9506 35.4786 26.9506 35.0828V27.2285C26.9506 26.8327 27.3712 26.6349 27.7917 26.6349H32.1949C32.6031 26.6349 32.7762 27.0679 32.7762 27.4637C32.7762 27.9213 32.5659 28.3172 32.1949 28.3172H28.8802V30.4072Z" fill="#F2F2F7"/>
<path d="M39.1337 35.1568L36.7836 30.8772V35.0826C36.7836 35.4784 36.3012 35.6762 35.8188 35.6762C35.3365 35.6762 34.854 35.4784 34.854 35.0826V27.2283C34.854 26.8201 35.3364 26.6346 35.8188 26.6346C36.5115 26.6346 36.7712 26.6965 37.2413 27.5994L39.2451 31.4215V27.2161C39.2451 26.8079 39.7275 26.6347 40.2099 26.6347C40.6922 26.6347 41.1746 26.8079 41.1746 27.2161V35.0827C41.1746 35.4785 40.6922 35.6763 40.2099 35.6763C39.7645 35.6763 39.3687 35.5896 39.1337 35.1568Z" fill="#F2F2F7"/>
</svg>
