<svg width="50" height="50" viewBox="0 0 50 50" fill="none" xmlns="http://www.w3.org/2000/svg">
<path d="M50 25C50 28.698 49.197 32.2083 47.7562 35.3664C45.293 40.7654 40.9653 45.1336 35.5968 47.6501C34.6245 48.1052 33.6174 48.5001 32.5806 48.8285C31.4144 49.2012 30.2113 49.4877 28.9764 49.6845C28.9715 49.6857 28.9654 49.6868 28.96 49.6868C28.3543 49.7837 27.7428 49.8581 27.1236 49.9104C26.9917 49.9214 26.8593 49.9317 26.7265 49.9409C26.5396 49.9531 26.3519 49.9641 26.1631 49.9725C25.7774 49.9908 25.3899 50 25 50C24.5998 50 24.2031 49.9908 23.8083 49.9714C23.6298 49.9634 23.4509 49.9531 23.2723 49.9397C23.1388 49.9306 23.0061 49.9214 22.8733 49.9104C22.2397 49.8573 21.6122 49.7795 20.993 49.6796C20.697 49.6315 20.4021 49.5796 20.1103 49.5213C18.8438 49.2702 17.6132 48.9246 16.4246 48.4898C15.7356 48.2388 15.0612 47.958 14.402 47.649C14.1777 47.5437 13.9542 47.4346 13.7325 47.3213C13.1634 47.0337 12.6072 46.7243 12.0644 46.3947C9.34486 44.7479 6.96526 42.5968 5.05295 40.0715C3.90511 38.5551 2.92664 36.9041 2.145 35.1448C0.766373 32.045 0 28.6121 0 25C0 11.1927 11.1927 0 25 0C38.8073 0 50 11.1927 50 25Z" fill="#009688"/>
<path d="M44.2471 20.6454C44.19 20.6454 44.1318 20.6372 44.0742 20.6201C43.7548 20.5248 43.5732 20.1885 43.6684 19.8691L46.1223 11.6458L44.1121 11.0455C43.7927 10.9501 43.6111 10.6138 43.7064 10.2944C43.8019 9.97495 44.1382 9.79324 44.4575 9.88871L47.046 10.6618C47.3654 10.7571 47.547 11.0934 47.4517 11.4128L44.8253 20.2143C44.7471 20.4761 44.5071 20.6454 44.2471 20.6454Z" fill="#B5ADB6"/>
<path fill-rule="evenodd" clip-rule="evenodd" d="M8 7.46229V42.4689C8 42.7603 8.23734 42.9999 8.52844 42.9999H16.9609H35.0082H38.5908C38.8819 42.9999 39.1215 42.7602 39.1215 42.4689C39.1215 24.2766 39.1215 30.1539 39.1215 10.3349L39.1192 10.0055C39.1192 9.95619 39.1125 9.92033 39.0968 9.88674H34.8066C33.6378 9.88674 32.6795 8.92994 32.6795 7.75807L32.6839 3.77182C32.6413 3.75166 32.6011 3.74268 32.5451 3.74268H32.1487H8.52844C8.23734 3.74268 8 3.98244 8 4.27369V7.46229Z" fill="#F9F7F7"/>
<path fill-rule="evenodd" clip-rule="evenodd" d="M26.8309 3.74268C30.8971 7.93728 33.5438 14.7737 33.5438 22.4952C33.5438 24.1667 33.4184 25.798 33.1833 27.3709C33.1072 27.8751 33.0199 28.3725 32.9214 28.8655C32.8027 29.457 32.6683 30.0419 32.5183 30.6132C31.1121 35.9709 28.3557 40.3828 24.8425 43H35.0081H38.5907C38.8817 43 39.1214 42.7602 39.1214 42.469V36.5334V28.6729V10.3349L39.1191 10.0055C39.1191 9.95619 39.1124 9.92033 39.0967 9.88674L32.6839 3.77182C32.6414 3.75166 32.6011 3.74268 32.5451 3.74268H32.1488H26.8309Z" fill="#E2E2E2"/>
<path fill-rule="evenodd" clip-rule="evenodd" d="M32.6839 3.77197L32.6794 7.75822C32.6794 8.9301 33.6378 9.8869 34.8066 9.8869H39.0968C39.0609 9.81744 38.9804 9.75471 38.8191 9.6001L33.0243 4.07002C32.8451 3.89744 32.7645 3.8101 32.6839 3.77197Z" fill="#CECECE"/>
<path d="M16.5624 11.4499H15.0444C14.6117 11.4499 14.2598 11.0974 14.2598 10.6642C14.2598 10.231 14.6118 9.87861 15.0444 9.87861H17.9417C18.2751 9.87861 18.5453 9.60838 18.5453 9.27502C18.5453 8.94166 18.2751 8.67143 17.9417 8.67143H16.4025V7.62361C16.4025 7.29025 16.1323 7.02002 15.7989 7.02002C15.4655 7.02002 15.1953 7.29025 15.1953 7.62361V8.67135H15.0444C13.9461 8.67135 13.0525 9.56533 13.0525 10.6642C13.0525 11.7631 13.9461 12.6571 15.0444 12.6571H16.5625C16.983 12.6571 17.3382 13.0179 17.3382 13.445C17.3382 13.8782 16.9862 14.2306 16.5536 14.2306H13.6561C13.3227 14.2306 13.0525 14.5009 13.0525 14.8342C13.0525 15.1676 13.3227 15.4378 13.6561 15.4378H15.193V16.4856C15.193 16.819 15.4633 17.0892 15.7966 17.0892C16.13 17.0892 16.4002 16.819 16.4002 16.4856V15.4378H16.5534C17.6517 15.4378 18.5452 14.5438 18.5452 13.4449C18.5453 12.3449 17.6558 11.4499 16.5624 11.4499Z" fill="#838383"/>
<path d="M31.3002 25.4135H13.3963C13.063 25.4135 12.7927 25.1433 12.7927 24.8099C12.7927 24.4765 13.063 24.2063 13.3963 24.2063H31.3003C31.6337 24.2063 31.9039 24.4765 31.9039 24.8099C31.9039 25.1433 31.6337 25.4135 31.3002 25.4135Z" fill="#838383"/>
<path d="M31.3002 21.4855H13.3963C13.063 21.4855 12.7927 21.2153 12.7927 20.8819C12.7927 20.5486 13.063 20.2783 13.3963 20.2783H31.3003C31.6337 20.2783 31.9039 20.5486 31.9039 20.8819C31.9039 21.2152 31.6337 21.4855 31.3002 21.4855Z" fill="#838383"/>
<path d="M28.0356 29.3393H13.3963C13.063 29.3393 12.7927 29.069 12.7927 28.7357C12.7927 28.4023 13.063 28.1321 13.3963 28.1321H28.0356C28.369 28.1321 28.6392 28.4023 28.6392 28.7357C28.6393 29.069 28.369 29.3393 28.0356 29.3393Z" fill="#838383"/>
<path fill-rule="evenodd" clip-rule="evenodd" d="M41.2083 6.84611L42.3661 8.49299L44.3385 7.78275L45.1401 5.10283C45.3953 4.24017 44.9027 3.32596 44.0407 3.06822C43.1808 2.81057 42.2673 3.30572 42.0098 4.16619L41.2083 6.84611Z" fill="#CECECE"/>
<path fill-rule="evenodd" clip-rule="evenodd" d="M33.3581 34.7497L33.6693 37.5193C33.7029 37.7007 33.7007 37.7097 33.8306 37.5663L35.6106 35.4219L37.525 33.1118L35.7271 30.9248L33.0222 31.765L33.3581 34.7497Z" fill="#838383"/>
<path fill-rule="evenodd" clip-rule="evenodd" d="M40.3172 7.32785L33.0222 31.7651L35.2748 32.4396L37.5251 33.1118L44.285 10.4671L44.8202 8.67449C44.9344 8.29582 44.7172 7.89472 44.3388 7.78269L41.2084 6.84613C40.8322 6.7341 40.4314 6.95144 40.3172 7.32785Z" fill="#FE9737"/>
<path fill-rule="evenodd" clip-rule="evenodd" d="M43.575 4.63447L42.7734 7.3144L44.3386 7.78268L45.1402 5.10276C45.3954 4.2401 44.9028 3.32588 44.0408 3.06815C43.7564 2.98299 43.4676 2.98072 43.1966 3.04572C43.5817 3.45588 43.7452 4.05861 43.575 4.63447Z" fill="#B5ADB6"/>
<path fill-rule="evenodd" clip-rule="evenodd" d="M42.7198 9.99891L36.2757 31.5904L35.96 32.6435L37.5251 33.1118L44.285 10.4671L44.8202 8.67453C44.9344 8.29586 44.7172 7.89477 44.3388 7.78273L42.7736 7.31445C43.1521 7.42648 43.3693 7.82758 43.255 8.20625L42.7198 9.99891Z" fill="#F36B37"/>
<path fill-rule="evenodd" clip-rule="evenodd" d="M35.9598 32.6436L34.0453 34.9537L33.4609 35.6596L33.6691 37.5193C33.7027 37.7008 33.7005 37.7098 33.8304 37.5664L35.6105 35.422L37.5249 33.1118L35.9598 32.6436Z" fill="#595959"/>
<path d="M18.2843 33.2672H13.3963C13.063 33.2672 12.7927 32.997 12.7927 32.6637C12.7927 32.3303 13.063 32.0601 13.3963 32.0601H18.2843C18.6176 32.0601 18.8879 32.3303 18.8879 32.6637C18.888 32.997 18.6176 33.2672 18.2843 33.2672Z" fill="#838383"/>
</svg>
