<svg width="48" height="48" viewBox="0 0 48 48" fill="none" xmlns="http://www.w3.org/2000/svg">
<g clip-path="url(#clip0)">
<mask id="mask0" mask-type="alpha" maskUnits="userSpaceOnUse" x="0" y="0" width="48" height="48">
<path d="M24.0001 47.9998C10.7453 47.9998 0.000282288 37.2547 0.000282288 23.9999C0.000282288 23.1104 0.0482826 22.2327 0.143345 21.3697C0.67725 16.464 2.69025 12.0029 5.727 8.44012C10.1292 3.27478 16.6826 0 24.0001 0C27.2749 0 30.3958 0.655313 33.2406 1.84359C39.8528 4.60406 44.9652 10.2386 47.0184 17.1859C47.6572 19.3459 48 21.6322 48 23.9999C48 24.2467 47.9961 24.4927 47.9883 24.7375C47.8443 29.5345 46.2916 33.977 43.73 37.6672C39.3973 43.911 32.1757 47.9998 24.0001 47.9998Z" fill="#009688"/>
</mask>
<g mask="url(#mask0)">
<path d="M23.9998 47.9998C10.7451 47.9998 3.8147e-05 37.2547 3.8147e-05 23.9999C3.8147e-05 23.1104 0.0480385 22.2327 0.143101 21.3697C0.677006 16.464 2.69 12.0029 5.72675 8.44012C10.129 3.27478 16.6824 0 23.9998 0C27.2746 0 30.3956 0.655313 33.2403 1.84359C39.8525 4.60406 44.965 10.2386 47.0182 17.1859C47.6569 19.3459 47.9998 21.6322 47.9998 23.9999C47.9998 24.2467 47.9958 24.4927 47.988 24.7375C47.844 29.5345 46.2913 33.977 43.7297 37.6672C39.3971 43.911 32.1755 47.9998 23.9998 47.9998Z" fill="#009688"/>
<path d="M19.9453 23.3435L22.6106 35.9249H25.3892L28.0545 23.3435H19.9453Z" fill="#DDEBFD"/>
<path d="M37.2357 20.5244L36.2842 17.2268L35.4248 18.0533C34.7368 18.7149 33.7354 18.9372 32.8342 18.6227C31.4409 18.1366 29.8924 17.7619 28.2353 17.5236C26.8869 17.3304 25.4664 17.2268 23.9998 17.2268C22.5333 17.2268 21.1128 17.3304 19.7644 17.5236C18.1073 17.7618 16.5588 18.1365 15.1655 18.6227C14.2643 18.9373 13.2629 18.715 12.5749 18.0533L11.7155 17.2268L10.7639 20.5244V23.4033L20.6645 24.7623H27.335L37.2356 23.4033V20.5244H37.2357Z" fill="#766D78"/>
<path d="M29.6953 20.851L29.3596 23.1801C29.2876 23.6805 29.1143 24.1444 28.8635 24.5527C28.2251 25.591 27.079 26.2688 25.7936 26.2688H22.2063C20.9209 26.2688 19.7748 25.591 19.1364 24.5527C18.8856 24.1444 18.7124 23.6805 18.6403 23.1801L18.3046 20.851C18.1581 19.8304 18.4731 18.8626 19.0811 18.1427C19.4162 17.7457 19.8962 17.5003 20.412 17.4384C21.5651 17.3001 22.7663 17.2268 24 17.2268C25.2337 17.2268 26.4348 17.3001 27.5879 17.4384C28.1037 17.5003 28.5836 17.7458 28.9188 18.1427C29.5268 18.8626 29.8418 19.8304 29.6953 20.851Z" fill="#A29AA5"/>
<path d="M29.1385 22.6109C28.464 23.7079 27.2531 24.424 25.895 24.424H22.1048C20.7468 24.424 19.5358 23.7079 18.8613 22.6109C18.6441 22.2575 18.4833 21.8641 18.3899 21.4429L18.6402 23.1799C18.7123 23.6802 18.8855 24.1442 19.1363 24.5525C19.7748 25.5908 20.9209 26.2686 22.2063 26.2686H25.7935C27.0789 26.2686 28.225 25.5908 28.8635 24.5525C29.1142 24.1442 29.2875 23.6802 29.3596 23.1799L29.6099 21.4429C29.5165 21.8641 29.3556 22.2576 29.1385 22.6109Z" fill="#8C818F"/>
<path d="M24.0001 23.0458C24.8313 23.0458 25.5051 22.372 25.5051 21.5409C25.5051 20.7097 24.8313 20.0359 24.0001 20.0359C23.1689 20.0359 22.4951 20.7097 22.4951 21.5409C22.4951 22.372 23.1689 23.0458 24.0001 23.0458Z" fill="#BED9FD"/>
<path d="M24.0001 4.80005C15.2042 4.80005 8.07373 11.9305 8.07373 20.7264C8.07373 29.5223 15.2042 36.6527 24.0001 36.6527C32.796 36.6527 39.9264 29.5222 39.9264 20.7264C39.9264 11.9306 32.796 4.80005 24.0001 4.80005ZM24.0001 33.2391C17.0895 33.2391 11.4874 27.637 11.4874 20.7263C11.4874 13.8156 17.0895 8.21358 24.0001 8.21358C30.9107 8.21358 36.5128 13.8157 36.5128 20.7264C36.5128 27.6371 30.9107 33.2391 24.0001 33.2391Z" fill="#8C818F"/>
<path d="M24.0001 34.4324C15.5775 34.4324 8.68301 27.894 8.11292 19.6162C8.08761 19.9831 8.07373 20.3531 8.07373 20.7263C8.07373 29.5222 15.2042 36.6527 24.0001 36.6527C32.796 36.6527 39.9264 29.5221 39.9264 20.7263C39.9264 20.353 39.9126 19.9831 39.8873 19.6162C39.3172 27.894 32.4227 34.4324 24.0001 34.4324Z" fill="#766D78"/>
<path d="M6.37277 23.5999L3.86083 18.5234C2.8202 16.4204 3.62711 13.8709 5.6882 12.7496L6.08692 12.5326L7.92705 10.8315C8.79536 10.0288 10.1976 10.3346 10.6527 11.4261L12.3801 15.464C12.4199 15.5571 12.5498 15.563 12.5978 15.4737L13.5857 13.6393C13.7182 13.3931 14.0248 13.3002 14.2717 13.4317L14.9021 13.7675C15.9485 14.3248 16.4089 15.5796 15.9713 16.6814L10.0793 31.5183L4.64523 29.6522L6.37277 23.5999Z" fill="#FFCDBE"/>
<path d="M5.68824 12.7499L6.08696 12.5329L6.20817 12.4209C5.42911 13.6659 5.29786 15.2713 5.99367 16.6776L8.39433 21.5293C8.46586 21.6739 8.48086 21.8401 8.43614 21.9952L6.02217 30.1254L4.64517 29.6525L6.37271 23.6003L3.86077 18.5238C2.82023 16.4207 3.62714 13.8712 5.68824 12.7499Z" fill="#EBAE9D"/>
<path d="M4.43671 26.9591L0.0269838 39.6617C-0.0609537 39.915 0.0731089 40.1917 0.326422 40.2796L6.88058 42.5549C7.1339 42.6429 7.41055 42.5088 7.49849 42.2555L11.9082 29.5529C12.0004 29.2873 11.8598 28.9973 11.5942 28.9051L5.08443 26.6453C4.81893 26.553 4.52886 26.6935 4.43671 26.9591Z" fill="#FECF32"/>
<path d="M4.43671 26.9592C4.52886 26.6936 4.81893 26.5531 5.08452 26.6452L7.19343 27.3773C6.94612 27.2914 6.67086 27.4371 6.57861 27.7027L2.00961 40.864L0.326422 40.2797C0.0731089 40.1917 -0.0609537 39.9151 0.0269838 39.6618L4.43671 26.9592Z" fill="#FDAE2F"/>
<path d="M41.6271 23.5999L44.139 18.5234C45.1796 16.4204 44.3727 13.8709 42.3116 12.7496L41.9129 12.5326L40.0728 10.8315C39.2045 10.0288 37.8022 10.3346 37.3471 11.4261L35.6197 15.464C35.5799 15.5571 35.45 15.563 35.402 15.4737L34.4141 13.6393C34.2816 13.3931 33.975 13.3002 33.7281 13.4317L33.0977 13.7675C32.0513 14.3248 31.5909 15.5796 32.0285 16.6814L37.9205 31.5183L43.3547 29.652L41.6271 23.5999Z" fill="#FFCDBE"/>
<path d="M42.3118 12.7499L41.913 12.5329L41.7918 12.4209C42.5709 13.6659 42.7021 15.2713 42.0063 16.6776L39.6057 21.5293C39.5341 21.6739 39.5191 21.8401 39.5639 21.9952L41.9778 30.1254L43.3548 29.6525L41.6273 23.6003L44.1392 18.5238C45.1798 16.4207 44.3729 13.8712 42.3118 12.7499Z" fill="#EBAE9D"/>
<path d="M43.5633 26.9591L47.973 39.6617C48.0609 39.915 47.9269 40.1917 47.6735 40.2796L41.1194 42.5549C40.8661 42.6429 40.5894 42.5088 40.5015 42.2555L36.0917 29.5529C35.9996 29.2873 36.1401 28.9973 36.4057 28.9051L42.9155 26.6453C43.181 26.553 43.4711 26.6935 43.5633 26.9591Z" fill="#FECF32"/>
<path d="M43.5634 26.9592C43.4712 26.6936 43.1811 26.5531 42.9156 26.6452L40.8066 27.3773C41.054 27.2914 41.3292 27.4371 41.4215 27.7027L45.9904 40.864L47.6736 40.2797C47.9269 40.1917 48.0609 39.9151 47.973 39.6618L43.5634 26.9592Z" fill="#FDAE2F"/>
</g>
</g>
<defs>
<clipPath id="clip0">
<rect width="48" height="48" fill="white" transform="translate(48) rotate(90)"/>
</clipPath>
</defs>
</svg>
