<svg width="50" height="50" viewBox="0 0 50 50" fill="none" xmlns="http://www.w3.org/2000/svg">
<path d="M50 25C50 31.847 47.248 38.0521 42.7878 42.5663C40.2664 45.1204 37.199 47.1337 33.7745 48.4163C32.7429 48.8041 31.6775 49.1245 30.5857 49.3734C28.7897 49.7837 26.9204 50 25 50C22.7949 50 20.6571 49.7143 18.6214 49.1786C14.6897 48.1449 11.1367 46.1766 8.21318 43.5256C3.16836 38.952 0 32.3459 0 25C0 11.1929 11.1929 0 25 0C38.8071 0 50 11.1929 50 25Z" fill="#009688"/>
<path d="M44.5037 19.5036C44.5037 24.8452 42.3567 29.686 38.8771 33.2079C36.9101 35.2005 34.5172 36.7711 31.8455 37.7718C31.0407 38.0743 30.2095 38.3242 29.3578 38.5186C27.9568 38.8386 26.4983 39.0073 25.0002 39.0073C23.2799 39.0073 21.6121 38.7845 20.0239 38.3665C16.9566 37.5601 14.1848 36.0244 11.904 33.9563C7.96824 30.3884 5.49646 25.2346 5.49646 19.5038C5.49646 8.73203 14.2286 0 25.0001 0C35.7716 0 44.5037 8.73203 44.5037 19.5036Z" fill="#009688"/>
<path d="M18.6213 23.1408V49.1786C14.6897 48.1449 11.1367 46.1765 8.21313 43.5256V23.1408H18.6213Z" fill="#535E8A"/>
<path d="M18.162 1.73572V9.21267C18.162 11.8331 16.0377 13.9574 13.4173 13.9574C10.7969 13.9574 8.67255 11.8331 8.67255 9.21267V1.73572C4.18027 3.59841 1.02002 8.02575 1.02002 13.1919C1.02002 20.0387 6.57051 25.5892 13.4174 25.5892C20.2642 25.5892 25.8147 20.0387 25.8147 13.1919C25.8147 8.02575 22.6545 3.59841 18.162 1.73572Z" fill="#535E8A"/>
<path d="M9.76091 44.8235V24.4675L8.21326 24.4281V43.5256" fill="#323B5B"/>
<path d="M9.78105 24.4558C5.52324 22.4932 2.56768 18.188 2.56768 13.192C2.56768 8.64236 5.01934 4.66668 8.67275 2.51013V1.73572C4.18027 3.59851 1.02002 8.02586 1.02002 13.192C1.02002 18.7661 4.69873 23.4809 9.76074 25.0413L9.78105 24.4558Z" fill="#323B5B"/>
<path d="M39.5395 17.3459H35.4071V39.5388H39.5395V17.3459Z" fill="#EDEDED"/>
<path d="M36.9222 17.3459H35.4071V39.5388H36.9222V17.3459Z" fill="#BDBDBD"/>
<path d="M41.9888 12.499L38.9787 2.39752H35.9687L32.9586 12.499L35.4074 17.6515H39.54L41.9888 12.499Z" fill="#EDEDED"/>
<path d="M42.7877 42.5663C39.5061 45.8897 35.3 48.2979 30.5857 49.3734V46.1734C30.5857 43.455 32.7898 41.252 35.5071 41.252H39.4397C40.7326 41.252 41.9091 41.7509 42.7877 42.5663Z" fill="#FF4F6F"/>
<path d="M38.6959 41.252C35.9775 41.252 33.7745 43.455 33.7745 46.1734V48.4163C32.7428 48.8041 31.6775 49.1245 30.5857 49.3734V46.1734C30.5857 43.455 32.7898 41.252 35.5071 41.252H38.6959Z" fill="#E33958"/>
<path d="M36.9226 17.6515L33.9114 12.3745L36.3265 3.29283H39.2455L38.9787 2.39752H35.9687L32.9586 12.499L35.4074 17.6515L36.3379 18.2362L36.9226 17.6515Z" fill="#BDBDBD"/>
<path d="M42.831 41.7622H32.1166C31.2713 41.7622 30.5861 41.0768 30.5861 40.2316C30.5861 39.3863 31.2714 38.701 32.1166 38.701H42.8309C43.6762 38.701 44.3615 39.3864 44.3615 40.2316C44.3615 41.0769 43.6763 41.7622 42.831 41.7622Z" fill="#FF4F6F"/>
<path d="M33.8517 40.2316C33.8517 39.3863 34.537 38.701 35.3823 38.701H32.1166C31.2713 38.701 30.5861 39.3864 30.5861 40.2316C30.5861 41.0769 31.2714 41.7622 32.1166 41.7622H35.3823C34.5369 41.7622 33.8517 41.0769 33.8517 40.2316Z" fill="#E33958"/>
</svg>
