<svg width="50" height="50" viewBox="0 0 50 50" fill="none" xmlns="http://www.w3.org/2000/svg">
<path d="M24.9999 49.9999C11.1928 49.9999 4.95911e-05 38.8072 4.95911e-05 25C4.95911e-05 24.0735 0.0500488 23.1592 0.149071 22.2603C0.705223 17.1501 2.8021 12.5031 5.96538 8.79192C10.551 3.41135 17.3775 0.00012207 24.9999 0.00012207C28.4111 0.00012207 31.6621 0.682739 34.6253 1.92053C41.513 4.79602 46.8385 10.6654 48.9773 17.9021C49.6426 20.1521 49.9998 22.5337 49.9998 25C49.9998 25.2572 49.9957 25.5133 49.9875 25.7684C49.8375 30.7653 48.2202 35.3928 45.5518 39.2367C41.0386 45.7407 33.5162 49.9999 24.9999 49.9999Z" fill="#009688"/>
<path d="M8.33992 24.9998C8.33992 36.5036 17.6656 45.8293 29.1694 45.8293C40.6732 45.8293 49.9989 36.5036 49.9989 24.9998C49.9989 13.496 40.6732 4.17029 29.1694 4.17029C17.6656 4.17029 8.33992 13.496 8.33992 24.9998Z" fill="#009688"/>
<path d="M19.3804 46.0836L7.55188 34.8775C6.19065 33.5878 6.19065 31.4184 7.55188 30.1275L19.3804 18.9225C20.561 17.8041 22.507 18.6408 22.507 20.2663V25.7684H49.9874C49.8374 30.7652 48.22 35.3928 45.5517 39.2366H22.5069V44.7387C22.507 46.3652 20.5611 47.202 19.3804 46.0836Z" fill="#FF525D"/>
<path d="M34.0233 27.7622V22.2602H0.148952C0.705105 17.15 2.80198 12.503 5.96526 8.79179H34.0233V3.28984C34.0233 2.71943 34.2631 2.24599 34.6253 1.9205C35.2948 1.31747 36.3835 1.2205 37.1498 1.94599L48.9783 13.1511C50.3406 14.4419 50.3406 16.6112 48.9783 17.9011L48.9774 17.902L37.1498 29.1071C35.9693 30.2254 34.0233 29.3887 34.0233 27.7622Z" fill="#FFC743"/>
</svg>
