<svg width="53" height="51" viewBox="0 0 53 51" fill="none" xmlns="http://www.w3.org/2000/svg">
<path d="M50 26C50 29.698 49.197 33.2083 47.7562 36.3664C45.293 41.7654 40.9653 46.1336 35.5968 48.6501C34.6245 49.1052 33.6174 49.5001 32.5806 49.8285C31.4144 50.2012 30.2113 50.4877 28.9764 50.6845C28.9715 50.6857 28.9654 50.6868 28.96 50.6868C28.3543 50.7837 27.7428 50.8581 27.1236 50.9104C26.9917 50.9214 26.8593 50.9317 26.7265 50.9409C26.5396 50.9531 26.3519 50.9641 26.1631 50.9725C25.7774 50.9908 25.3899 51 25 51C24.5998 51 24.2031 50.9908 23.8083 50.9714C23.6298 50.9634 23.4509 50.9531 23.2723 50.9397C23.1388 50.9306 23.0061 50.9214 22.8733 50.9104C22.2397 50.8573 21.6122 50.7795 20.993 50.6796C20.697 50.6315 20.4021 50.5796 20.1103 50.5213C18.8438 50.2702 17.6132 49.9246 16.4246 49.4898C15.7356 49.2388 15.0612 48.958 14.402 48.649C14.1777 48.5437 13.9542 48.4346 13.7325 48.3213C13.1634 48.0337 12.6072 47.7243 12.0644 47.3947C9.34486 45.7479 6.96526 43.5968 5.05295 41.0715C3.90511 39.5551 2.92664 37.9041 2.145 36.1448C0.766373 33.045 0 29.6121 0 26C0 12.1927 11.1927 1 25 1C38.8073 1 50 12.1927 50 26Z" fill="#009688"/>
<path d="M37.1591 4.875H9.56563C8.7502 4.88099 7.97024 5.20924 7.39592 5.78813C6.82159 6.36701 6.49953 7.14955 6.5 7.965V42.5091C6.50054 42.9109 6.58029 43.3087 6.7347 43.6797C6.8891 44.0507 7.11513 44.3877 7.39985 44.6713C7.68457 44.9549 8.0224 45.1795 8.39402 45.3325C8.76565 45.4854 9.16377 45.5636 9.56563 45.5625H37.1591C38.8522 45.5625 40.25 44.1984 40.25 42.5091V7.965C40.2448 7.14694 39.9174 6.36388 39.3388 5.7855C38.7603 5.20711 37.9771 4.87999 37.1591 4.875ZM13.475 10.0219C13.1401 10.0211 12.8129 9.92115 12.5349 9.73455C12.2568 9.54796 12.0402 9.28312 11.9126 8.97351C11.7849 8.66389 11.7519 8.32339 11.8177 7.99502C11.8835 7.66666 12.0451 7.36515 12.2822 7.12861C12.5193 6.89207 12.8211 6.73109 13.1496 6.66603C13.4781 6.60097 13.8186 6.63474 14.1279 6.76306C14.4372 6.89139 14.7016 7.10853 14.8876 7.38703C15.0736 7.66554 15.1728 7.99292 15.1728 8.32781C15.1727 8.55055 15.1286 8.77107 15.0432 8.97678C14.9578 9.18248 14.8326 9.36934 14.675 9.52666C14.5173 9.68399 14.3301 9.8087 14.1243 9.89367C13.9184 9.97864 13.6977 10.0222 13.475 10.0219ZM19.865 10.0219C19.5301 10.0211 19.2029 9.92115 18.9249 9.73455C18.6468 9.54796 18.4302 9.28312 18.3026 8.97351C18.1749 8.66389 18.1419 8.32339 18.2077 7.99502C18.2735 7.66666 18.4351 7.36515 18.6722 7.12861C18.9093 6.89207 19.2111 6.73109 19.5396 6.66603C19.8681 6.60097 20.2086 6.63474 20.5179 6.76306C20.8272 6.89139 21.0916 7.10853 21.2776 7.38703C21.4636 7.66554 21.5628 7.99292 21.5628 8.32781C21.5623 8.7776 21.3831 9.20875 21.0647 9.52644C20.7463 9.84414 20.3148 10.0223 19.865 10.0219ZM26.255 10.0219C25.9201 10.0213 25.5928 9.92149 25.3146 9.73501C25.0364 9.54852 24.8197 9.28375 24.6919 8.97416C24.5641 8.66456 24.531 8.32403 24.5966 7.9956C24.6623 7.66717 24.8239 7.36558 25.0609 7.12894C25.298 6.8923 25.5998 6.73124 25.9284 6.6661C26.2569 6.60096 26.5974 6.63467 26.9067 6.76297C27.2161 6.89128 27.4805 7.10841 27.6666 7.38693C27.8526 7.66546 27.9519 7.99288 27.9519 8.32781C27.9514 8.77743 27.7723 9.20845 27.4541 9.52611C27.1359 9.84378 26.7046 10.0221 26.255 10.0219ZM32.6441 10.0219C32.3092 10.0211 31.982 9.92115 31.7039 9.73455C31.4258 9.54796 31.2093 9.28312 31.0816 8.97351C30.954 8.66389 30.921 8.32339 30.9868 7.99502C31.0525 7.66666 31.2142 7.36515 31.4513 7.12861C31.6883 6.89207 31.9902 6.73109 32.3187 6.66603C32.6472 6.60097 32.9876 6.63474 33.297 6.76306C33.6063 6.89139 33.8707 7.10853 34.0566 7.38703C34.2426 7.66554 34.3419 7.99292 34.3419 8.32781C34.3417 8.55055 34.2977 8.77107 34.2122 8.97678C34.1268 9.18248 34.0017 9.36934 33.844 9.52666C33.6863 9.68399 33.4992 9.8087 33.2933 9.89367C33.0874 9.97864 32.8668 10.0222 32.6441 10.0219Z" fill="#FAE7E3"/>
<path d="M51.0762 28.0397C50.7002 27.4692 50.1133 27.0711 49.4442 26.9328C48.7751 26.7945 48.0785 26.9272 47.5071 27.3019L47.2915 27.4435L50.1228 31.7428L50.3374 31.6022C50.6203 31.4172 50.8639 31.1782 51.0542 30.8988C51.2445 30.6195 51.3778 30.3053 51.4464 29.9743C51.5151 29.6434 51.5177 29.3021 51.4542 28.9701C51.3906 28.6381 51.2622 28.322 51.0762 28.0397Z" fill="#F3CE7D"/>
<path d="M48.7072 29.5933L32.2344 40.3914L33.6491 42.5411L50.1228 31.7429L48.7072 29.5933Z" fill="#B75C6F"/>
<path d="M47.2914 27.4436L30.8186 38.2417L32.2342 40.3914L48.707 29.5933L47.2914 27.4436Z" fill="#E87187"/>
<path d="M30.8188 38.2417L28.4675 42.6761L33.6491 42.5411L30.8188 38.2417Z" fill="#C79A83"/>
<path d="M31.7253 13.9453L33.3753 18.4875H13.4131L15.0621 13.9453C15.1818 13.6157 15.4 13.3309 15.6872 13.1296C15.9743 12.9284 16.3165 12.8204 16.6671 12.8203H30.1212C30.4718 12.8203 30.8138 12.9283 31.1008 13.1296C31.3878 13.3309 31.6059 13.6157 31.7253 13.9453Z" fill="#6ADDC7"/>
<path d="M33.4634 18.4688H13.3241C12.4306 18.4688 11.75 19.2122 11.75 20.1056V24.6562H35.0938V20.1056C35.0918 19.6732 34.9196 19.259 34.6145 18.9527C34.3093 18.6463 33.8958 18.4724 33.4634 18.4688Z" fill="#978CAC"/>
<path d="M34.8642 29.4216C34.8649 29.5262 34.8451 29.63 34.8057 29.7269C34.7663 29.8239 34.7083 29.9122 34.6348 29.9867C34.5613 30.0612 34.4739 30.1205 34.3775 30.1612C34.2811 30.202 34.1776 30.2233 34.073 30.2241L31.9158 30.2391C31.8111 30.2398 31.7074 30.2199 31.6104 30.1806C31.5134 30.1412 31.4252 30.0831 31.3506 30.0096C31.2761 29.9362 31.2168 29.8487 31.1761 29.7523C31.1353 29.6559 31.114 29.5525 31.1133 29.4478L31.0955 26.8969V26.865H34.8464V26.8706L34.8642 29.4216Z" fill="#6D7486"/>
<path d="M15.6921 29.4216C15.6931 29.5262 15.6733 29.63 15.6341 29.727C15.5949 29.8239 15.5369 29.9122 15.4635 29.9868C15.39 30.0613 15.3026 30.1207 15.2063 30.1614C15.1099 30.2021 15.0064 30.2234 14.9018 30.2241L12.7437 30.2391C12.5324 30.2403 12.3293 30.1576 12.1789 30.0093C12.0285 29.861 11.943 29.6591 11.9412 29.4478L11.9243 26.8969V26.865H15.6752V26.8706L15.6921 29.4216Z" fill="#6D7486"/>
<path d="M31.6755 20.0513C32.0369 20.0513 32.3835 20.1948 32.6391 20.4504C32.8946 20.7059 33.0382 21.0525 33.0382 21.4139C33.0382 21.7753 32.8946 22.1219 32.6391 22.3775C32.3835 22.633 32.0369 22.7766 31.6755 22.7766H28.7637L29.2896 20.0513H31.6755Z" fill="#F3CE7D"/>
<path d="M26.7828 22.7036L27.9068 24.6405H18.4634L19.5874 22.7036H26.7828Z" fill="#B0B5CA"/>
<path d="M17.1378 20.0513L17.6637 22.7766H14.7518C14.3904 22.7766 14.0438 22.633 13.7883 22.3775C13.5327 22.1219 13.3892 21.7753 13.3892 21.4139C13.3892 21.0525 13.5327 20.7059 13.7883 20.4504C14.0438 20.1948 14.3904 20.0513 14.7518 20.0513H17.1378Z" fill="#F3CE7D"/>
<path d="M35.4387 24.5624H11.3488C11.2316 24.5624 11.0938 24.6421 11.0938 24.7593V26.7459C11.098 26.8092 11.1241 26.8691 11.1675 26.9154C11.2109 26.9617 11.269 26.9916 11.3319 27H35.4387C35.4994 26.9906 35.5547 26.9599 35.5946 26.9132C35.6345 26.8666 35.6564 26.8073 35.6562 26.7459V24.7593C35.6553 24.732 35.6489 24.7051 35.6374 24.6803C35.6259 24.6555 35.6095 24.6332 35.5892 24.6148C35.5689 24.5965 35.5451 24.5824 35.5193 24.5734C35.4934 24.5644 35.4661 24.5607 35.4387 24.5624Z" fill="#6D6D93"/>
<path d="M9.3125 42.5091V7.965C9.31204 7.14955 9.6341 6.36701 10.2084 5.78813C10.7827 5.20924 11.5627 4.88099 12.3781 4.875H9.56563C8.7502 4.88099 7.97024 5.20924 7.39592 5.78813C6.82159 6.36701 6.49953 7.14955 6.5 7.965V42.5091C6.50054 42.9109 6.58029 43.3087 6.7347 43.6797C6.8891 44.0507 7.11513 44.3877 7.39985 44.6713C7.68457 44.9549 8.0224 45.1795 8.39403 45.3325C8.76565 45.4854 9.16377 45.5636 9.56563 45.5625H12.3781C11.9763 45.5636 11.5781 45.4854 11.2065 45.3325C10.8349 45.1795 10.4971 44.9549 10.2124 44.6713C9.92763 44.3877 9.7016 44.0507 9.5472 43.6797C9.3928 43.3087 9.31304 42.9109 9.3125 42.5091Z" fill="#CEBBB7"/>
<path d="M13.4751 7.18137C13.3259 7.18137 13.1828 7.12211 13.0773 7.01662C12.9719 6.91113 12.9126 6.76806 12.9126 6.61887V2.43115C12.9126 2.28197 12.9719 2.13889 13.0773 2.0334C13.1828 1.92792 13.3259 1.86865 13.4751 1.86865C13.6243 1.86865 13.7674 1.92792 13.8728 2.0334C13.9783 2.13889 14.0376 2.28197 14.0376 2.43115V6.61887C14.0376 6.76806 13.9783 6.91113 13.8728 7.01662C13.7674 7.12211 13.6243 7.18137 13.4751 7.18137Z" fill="#B0B5CA"/>
<path d="M13.4751 7.18137C13.3259 7.18137 13.1828 7.12211 13.0773 7.01662C12.9719 6.91113 12.9126 6.76806 12.9126 6.61887V2.43115C12.9126 2.28197 12.9719 2.13889 13.0773 2.0334C13.1828 1.92792 13.3259 1.86865 13.4751 1.86865C13.6243 1.86865 13.7674 1.92792 13.8728 2.0334C13.9783 2.13889 14.0376 2.28197 14.0376 2.43115V6.61887C14.0376 6.76806 13.9783 6.91113 13.8728 7.01662C13.7674 7.12211 13.6243 7.18137 13.4751 7.18137Z" fill="#B0B5CA"/>
<path d="M19.8652 7.18137C19.7161 7.18137 19.573 7.12211 19.4675 7.01662C19.362 6.91113 19.3027 6.76806 19.3027 6.61887V2.43115C19.3027 2.28197 19.362 2.13889 19.4675 2.0334C19.573 1.92792 19.7161 1.86865 19.8652 1.86865C20.0144 1.86865 20.1575 1.92792 20.263 2.0334C20.3685 2.13889 20.4277 2.28197 20.4277 2.43115V6.61887C20.4277 6.76806 20.3685 6.91113 20.263 7.01662C20.1575 7.12211 20.0144 7.18137 19.8652 7.18137Z" fill="#B0B5CA"/>
<path d="M26.2549 7.18137C26.1057 7.18137 25.9626 7.12211 25.8571 7.01662C25.7516 6.91113 25.6924 6.76806 25.6924 6.61887V2.43115C25.6924 2.28197 25.7516 2.13889 25.8571 2.0334C25.9626 1.92792 26.1057 1.86865 26.2549 1.86865C26.4041 1.86865 26.5471 1.92792 26.6526 2.0334C26.7581 2.13889 26.8174 2.28197 26.8174 2.43115V6.61887C26.8174 6.76806 26.7581 6.91113 26.6526 7.01662C26.5471 7.12211 26.4041 7.18137 26.2549 7.18137Z" fill="#B0B5CA"/>
<path d="M32.6445 7.18137C32.4953 7.18137 32.3523 7.12211 32.2468 7.01662C32.1413 6.91113 32.082 6.76806 32.082 6.61887V2.43115C32.082 2.28197 32.1413 2.13889 32.2468 2.0334C32.3523 1.92792 32.4953 1.86865 32.6445 1.86865C32.7937 1.86865 32.9368 1.92792 33.0423 2.0334C33.1478 2.13889 33.207 2.28197 33.207 2.43115V6.61887C33.207 6.76806 33.1478 6.91113 33.0423 7.01662C32.9368 7.12211 32.7937 7.18137 32.6445 7.18137Z" fill="#B0B5CA"/>
<path d="M9.06201 21.2542C8.91283 21.2542 8.76975 21.1949 8.66426 21.0894C8.55877 20.9839 8.49951 20.8408 8.49951 20.6917V11.9729C8.49951 11.8237 8.55877 11.6806 8.66426 11.5752C8.76975 11.4697 8.91283 11.4104 9.06201 11.4104C9.2112 11.4104 9.35427 11.4697 9.45976 11.5752C9.56525 11.6806 9.62451 11.8237 9.62451 11.9729V20.6917C9.62451 20.8408 9.56525 20.9839 9.45976 21.0894C9.35427 21.1949 9.2112 21.2542 9.06201 21.2542Z" fill="#F4F8FC"/>
<path d="M9.06201 10.7604C8.91283 10.7604 8.76975 10.7012 8.66426 10.5957C8.55877 10.4902 8.49951 10.3471 8.49951 10.1979V9.73389C8.49951 9.5847 8.55877 9.44163 8.66426 9.33614C8.76975 9.23065 8.91283 9.17139 9.06201 9.17139C9.2112 9.17139 9.35427 9.23065 9.45976 9.33614C9.56525 9.44163 9.62451 9.5847 9.62451 9.73389V10.1979C9.62451 10.3471 9.56525 10.4902 9.45976 10.5957C9.35427 10.7012 9.2112 10.7604 9.06201 10.7604Z" fill="#F4F8FC"/>
<path d="M26.9668 21.5505H19.4604C19.3113 21.5505 19.1682 21.4913 19.0627 21.3858C18.9572 21.2803 18.8979 21.1372 18.8979 20.988C18.8979 20.8389 18.9572 20.6958 19.0627 20.5903C19.1682 20.4848 19.3113 20.4255 19.4604 20.4255H26.9668C27.116 20.4255 27.2591 20.4848 27.3646 20.5903C27.4701 20.6958 27.5293 20.8389 27.5293 20.988C27.5293 21.1372 27.4701 21.2803 27.3646 21.3858C27.2591 21.4913 27.116 21.5505 26.9668 21.5505Z" fill="#6D6D93"/>
<path d="M13.8951 36.1382C13.7314 36.1382 13.5714 36.0897 13.4353 35.9988C13.2991 35.9078 13.193 35.7785 13.1304 35.6273C13.0677 35.476 13.0513 35.3096 13.0832 35.149C13.1152 34.9885 13.194 34.841 13.3098 34.7252C13.4255 34.6094 13.573 34.5306 13.7336 34.4987C13.8942 34.4667 14.0606 34.4831 14.2119 34.5458C14.3631 34.6085 14.4924 34.7146 14.5833 34.8507C14.6743 34.9868 14.7228 35.1469 14.7228 35.3106C14.7228 35.4605 14.7823 35.6043 14.8883 35.7103C14.9944 35.8163 15.1382 35.8759 15.2881 35.8759C15.438 35.8759 15.5818 35.8163 15.6878 35.7103C15.7938 35.6043 15.8534 35.4605 15.8534 35.3106C15.8534 34.4293 15.2188 33.6835 14.4688 33.4413V33.1565C14.4688 33.0073 14.4095 32.8642 14.3041 32.7587C14.1986 32.6533 14.0555 32.594 13.9063 32.594C13.7571 32.594 13.614 32.6533 13.5086 32.7587C13.4031 32.8642 13.3438 33.0073 13.3438 33.1565V33.4413C12.9375 33.5553 12.5803 33.8004 12.3279 34.1385C12.0754 34.4766 11.9418 34.8887 11.948 35.3106C11.9479 35.828 12.1533 36.3243 12.5189 36.6904C12.8845 37.0565 13.3805 37.2625 13.898 37.2632C14.1174 37.2621 14.3283 37.3482 14.4843 37.5026C14.6402 37.657 14.7285 37.867 14.7296 38.0865C14.7307 38.3059 14.6446 38.5168 14.4902 38.6728C14.3358 38.8287 14.1258 38.917 13.9063 38.9181C13.9029 38.9181 13.8994 38.9181 13.896 38.9181C13.8926 38.9181 13.8891 38.9181 13.8858 38.9181C13.6681 38.9153 13.4603 38.827 13.3073 38.6722C13.1543 38.5174 13.0683 38.3086 13.068 38.0909C13.0689 38.0168 13.0552 37.9432 13.0275 37.8745C12.9998 37.8057 12.9587 37.7432 12.9066 37.6904C12.8546 37.6377 12.7925 37.5958 12.7241 37.5672C12.6558 37.5386 12.5824 37.5239 12.5083 37.5239C12.4341 37.5239 12.3607 37.5386 12.2924 37.5672C12.224 37.5958 12.1619 37.6377 12.1099 37.6904C12.0578 37.7432 12.0167 37.8057 11.989 37.8745C11.9613 37.9432 11.9476 38.0168 11.9485 38.0909C11.9423 38.5128 12.0758 38.9248 12.3282 39.2629C12.5805 39.601 12.9376 39.8462 13.3438 39.9602V40.3082C13.3438 40.4574 13.4031 40.6005 13.5086 40.706C13.614 40.8115 13.7571 40.8707 13.9063 40.8707C14.0555 40.8707 14.1986 40.8115 14.3041 40.706C14.4095 40.6005 14.4688 40.4574 14.4688 40.3082V39.9602C15.2188 39.718 15.8534 38.9721 15.8534 38.0909C15.8516 37.5726 15.6446 37.0761 15.2776 36.7101C14.9105 36.3442 14.4135 36.1385 13.8951 36.1382Z" fill="#4CA987"/>
<path d="M31.1249 37.2949H18.1982C18.0491 37.2949 17.906 37.2357 17.8005 37.1302C17.695 37.0247 17.6357 36.8816 17.6357 36.7324C17.6357 36.5832 17.695 36.4402 17.8005 36.3347C17.906 36.2292 18.0491 36.1699 18.1982 36.1699H31.1249C31.2741 36.1699 31.4171 36.2292 31.5226 36.3347C31.6281 36.4402 31.6874 36.5832 31.6874 36.7324C31.6874 36.8816 31.6281 37.0247 31.5226 37.1302C31.4171 37.2357 31.2741 37.2949 31.1249 37.2949Z" fill="#B29D9A"/>
<path d="M31.1249 34.4443H18.1982C18.0491 34.4443 17.906 34.3851 17.8005 34.2796C17.695 34.1741 17.6357 34.031 17.6357 33.8818C17.6357 33.7327 17.695 33.5896 17.8005 33.4841C17.906 33.3786 18.0491 33.3193 18.1982 33.3193H31.1249C31.2741 33.3193 31.4171 33.3786 31.5226 33.4841C31.6281 33.5896 31.6874 33.7327 31.6874 33.8818C31.6874 34.031 31.6281 34.1741 31.5226 34.2796C31.4171 34.3851 31.2741 34.4443 31.1249 34.4443Z" fill="#B29D9A"/>
<path d="M26.374 40.1453H18.1982C18.0491 40.1453 17.906 40.086 17.8005 39.9805C17.695 39.875 17.6357 39.7319 17.6357 39.5828C17.6357 39.4336 17.695 39.2905 17.8005 39.185C17.906 39.0795 18.0491 39.0203 18.1982 39.0203H26.374C26.5232 39.0203 26.6662 39.0795 26.7717 39.185C26.8772 39.2905 26.9365 39.4336 26.9365 39.5828C26.9365 39.7319 26.8772 39.875 26.7717 39.9805C26.6662 40.086 26.5232 40.1453 26.374 40.1453Z" fill="#B29D9A"/>
</svg>
