<svg width="26" height="26" viewBox="0 0 26 26" fill="none" xmlns="http://www.w3.org/2000/svg">
<path d="M0.411499 0.1875L1.82275 1.19969L3.23587 0.1875L4.64806 1.19969L6.06244 0.1875L7.47494 1.19969L8.88713 0.1875L10.3012 1.19969L11.7121 0.1875L13.1249 1.19969L14.539 0.1875L15.9537 1.19969L17.3687 0.1875L18.7859 1.19969L20.2031 0.1875V21.8562L22.8956 25.8125H3.56244C3.14846 25.8123 2.73857 25.7306 2.35617 25.572C1.97377 25.4135 1.62636 25.1811 1.33376 24.8883C1.04116 24.5954 0.80912 24.2478 0.650878 23.8652C0.492635 23.4827 0.411294 23.0727 0.411499 22.6587V0.1875Z" fill="#ECEFF1"/>
<path d="M3.22017 9.08883V8.45289C2.87931 8.45181 2.54548 8.35583 2.2561 8.1757L2.4061 7.7532C2.67598 7.92851 2.99055 8.02256 3.31236 8.02414C3.75986 8.02414 4.06236 7.7657 4.06236 7.40664C4.06236 7.06008 3.81673 6.8457 3.35017 6.65664C2.70985 6.40633 2.31235 6.11477 2.31235 5.56664C2.31628 5.30944 2.41597 5.06294 2.59193 4.8753C2.7679 4.68766 3.0075 4.57237 3.26392 4.55195V3.91602H3.65611V4.52695C3.94361 4.5292 4.22573 4.60516 4.47549 4.74758L4.31924 5.16352C4.07932 5.02065 3.8047 4.94659 3.52548 4.94945C3.04017 4.94945 2.85736 5.23945 2.85736 5.49133C2.85736 5.81883 3.09048 5.98289 3.63861 6.21008C4.28767 6.47477 4.61518 6.80383 4.61518 7.3632C4.61016 7.633 4.50581 7.89146 4.32211 8.08912C4.1384 8.28677 3.88825 8.40973 3.61955 8.43445V9.0907L3.22017 9.08883Z" fill="#EF5261"/>
<path d="M6.4574 3.92432H10.3605V4.54807H6.4574V3.92432Z" fill="#CFD8DC"/>
<path d="M11.5487 3.92432H18.5744V4.54807H11.5487V3.92432Z" fill="#CFD8DC"/>
<path d="M6.4574 6.19019H13.6527V6.81393H6.4574V6.19019Z" fill="#CFD8DC"/>
<path d="M15.3162 6.19019H18.5746V6.81393H15.3162V6.19019Z" fill="#CFD8DC"/>
<path d="M6.4574 8.45605H9.00302V9.0798H6.4574V8.45605Z" fill="#CFD8DC"/>
<path d="M10.6663 8.45605H18.5744V9.0798H10.6663V8.45605Z" fill="#CFD8DC"/>
<path d="M2.04028 12.4624H7.63747V13.0862H2.04028V12.4624Z" fill="#CFD8DC"/>
<path d="M9.76782 12.4624H18.5744V13.0862H9.76782V12.4624Z" fill="#CFD8DC"/>
<path d="M2.04028 14.8108H7.63747V15.4345H2.04028V14.8108Z" fill="#CFD8DC"/>
<path d="M9.76782 14.8108H18.5744V15.4345H9.76782V14.8108Z" fill="#CFD8DC"/>
<path d="M2.04028 17.1593H7.63747V17.7831H2.04028V17.1593Z" fill="#CFD8DC"/>
<path d="M9.76782 17.1593H18.5744V17.7831H9.76782V17.1593Z" fill="#CFD8DC"/>
<path d="M2.04028 19.5077H7.63747V20.1314H2.04028V19.5077Z" fill="#CFD8DC"/>
<path d="M9.76782 19.5077H18.5744V20.1314H9.76782V19.5077Z" fill="#CFD8DC"/>
<path d="M2.04028 21.8562H7.63747V22.48H2.04028V21.8562Z" fill="#CFD8DC"/>
<path d="M9.76782 21.8562H18.5744V22.48H9.76782V21.8562Z" fill="#CFD8DC"/>
<path d="M25.5883 12.9282V23.1226C25.5886 23.4759 25.5193 23.8259 25.3842 24.1524C25.2492 24.4789 25.051 24.7756 24.8012 25.0254C24.5513 25.2753 24.2546 25.4734 23.9281 25.6085C23.6016 25.7436 23.2517 25.8129 22.8983 25.8126H22.893C22.1789 25.8119 21.4943 25.5275 20.9898 25.022C20.4854 24.5166 20.2023 23.8314 20.203 23.1173V12.9282H25.5883Z" fill="#DBD8DD"/>
</svg>
