<svg width="20" height="28" viewBox="0 0 20 28" fill="none" xmlns="http://www.w3.org/2000/svg">
<path d="M18.7388 4.90967H1.26166C0.822939 4.90967 0.467285 5.26532 0.467285 5.70404V27.0181C0.467285 27.4568 0.822939 27.8125 1.26166 27.8125H18.7388C19.1776 27.8125 19.5332 27.4568 19.5332 27.0181V5.70404C19.5332 5.26532 19.1776 4.90967 18.7388 4.90967Z" fill="#F6B863"/>
<path d="M1.65894 6.1012H18.3417V26.6209H1.65894V6.1012Z" fill="#EEEFEE"/>
<path d="M6.1416 3.93188H13.8585C14.0242 3.93188 14.1832 3.99773 14.3004 4.11494C14.4176 4.23215 14.4835 4.39112 14.4835 4.55688V6.96063H5.5166V4.55688C5.5166 4.39112 5.58245 4.23215 5.69966 4.11494C5.81687 3.99773 5.97584 3.93188 6.1416 3.93188Z" fill="#575B6D"/>
<path d="M10.0001 0.937501C9.76203 0.937213 9.52621 0.983899 9.30617 1.07488C9.08614 1.16587 8.88622 1.29936 8.71785 1.46773C8.54949 1.63609 8.41599 1.83601 8.32501 2.05605C8.23402 2.27608 8.18734 2.5119 8.18762 2.75V4.5625H11.8126V2.75C11.8129 2.51191 11.7662 2.27611 11.6752 2.0561C11.5842 1.83608 11.4507 1.63618 11.2823 1.46782C11.114 1.29946 10.9141 1.16597 10.694 1.07497C10.474 0.983968 10.2382 0.937255 10.0001 0.937501ZM10.0001 3.54344C9.8429 3.54344 9.68921 3.4968 9.5585 3.40942C9.42778 3.32205 9.32592 3.19786 9.26581 3.05258C9.2057 2.90729 9.19004 2.74744 9.2208 2.59326C9.25157 2.43907 9.32738 2.29747 9.43864 2.18638C9.54991 2.07529 9.69163 1.9997 9.84586 1.96918C10.0001 1.93866 10.1599 1.95458 10.3051 2.01491C10.4503 2.07525 10.5743 2.17731 10.6615 2.30816C10.7487 2.43901 10.7951 2.59277 10.7948 2.75C10.7949 2.85433 10.7744 2.95764 10.7345 3.05402C10.6946 3.15041 10.636 3.23796 10.5622 3.31167C10.4883 3.38538 10.4007 3.4438 10.3043 3.48357C10.2078 3.52334 10.1045 3.54369 10.0001 3.54344Z" fill="#575B6D"/>
<path d="M6.87354 12.1925H3.1001V8.41504H6.87354V12.1925ZM3.54697 11.7457H6.42666V8.86191H3.54697V11.7457Z" fill="#575B6D"/>
<path d="M4.59858 11.2457L3.86108 10.5079L4.10796 10.2613L4.59858 10.7522L5.86577 9.48535L6.11233 9.73191L4.59858 11.2457Z" fill="#EF5261"/>
<path d="M7.73413 9.82373H16.7582V10.3481H7.73413V9.82373Z" fill="#DBD8DD"/>
<path d="M7.73413 11.6681H14.5363V12.1925H7.73413V11.6681Z" fill="#DBD8DD"/>
<path d="M6.87354 18.3691H3.1001V14.5913H6.87354V18.3691ZM3.54697 17.9219H6.42666V15.0385H3.54697V17.9219Z" fill="#575B6D"/>
<path d="M4.59858 17.4222L3.86108 16.6844L4.10796 16.4376L4.59858 16.9288L5.86577 15.6616L6.11233 15.9085L4.59858 17.4222Z" fill="#EF5261"/>
<path d="M7.73413 16H16.7582V16.5244H7.73413V16Z" fill="#DBD8DD"/>
<path d="M7.73413 17.8444H14.5363V18.3687H7.73413V17.8444Z" fill="#DBD8DD"/>
<path d="M6.87354 24.5453H3.1001V20.7678H6.87354V24.5453ZM3.54697 24.0984H6.42666V21.2147H3.54697V24.0984Z" fill="#575B6D"/>
<path d="M4.59858 23.5984L3.86108 22.8606L4.10796 22.6141L4.59858 23.105L5.86577 21.8381L6.11233 22.0847L4.59858 23.5984Z" fill="#2CBFAE"/>
<path d="M7.73413 22.1765H16.7582V22.7009H7.73413V22.1765Z" fill="#DBD8DD"/>
<path d="M7.73413 24.021H14.5363V24.5454H7.73413V24.021Z" fill="#DBD8DD"/>
</svg>
